<svg id="Layer_1" data-name="Layer 1" xmlns="http://www.w3.org/2000/svg" viewBox="0 0 196.048 158.091"><defs><style>.cls-1{fill:#1a3b68;}</style></defs><title>CISL-contemp-logo-blue-square</title><path class="cls-1" d="M47.267,115.056c14.895,0,27.735,7.5,33.179,21.468H66.374c-3.8-7.6-10.581-11.2-19.107-11.2-14.176,0-24.448,10.067-24.448,26.194s10.272,26.3,24.448,26.3c8.526,0,15.306-3.595,19.107-11.2H80.446C75,180.593,62.162,187.988,47.267,187.988c-20.133,0-36.466-15-36.466-36.466C10.8,130.156,27.134,115.056,47.267,115.056Z" transform="translate(-10.747 -30)"/><path class="cls-1" d="M90,115.98h11.711v71.392H90Z" transform="translate(-10.747 -30)"/><path class="cls-1" d="M136.533,188.091c-14.278,0-25.269-7.807-25.269-20.442H123.8c.514,5.856,4.622,10.58,12.737,10.58,8.218,0,12.84-4.417,12.84-10.477,0-17.257-37.9-6.061-37.9-32.357,0-12.533,9.964-20.339,24.551-20.339,13.662,0,23.318,7.19,24.345,19.414H147.422c-.411-4.827-4.623-9.244-12.019-9.45-6.779-.206-12.018,3.082-12.018,9.963,0,16.128,37.8,6.061,37.8,32.153C161.187,177.819,152.455,188.091,136.533,188.091Z" transform="translate(-10.747 -30)"/><path class="cls-1" d="M182.654,115.98v61.942H206.8v9.45H170.944V115.98Z" transform="translate(-10.747 -30)"/><path class="cls-1" d="M87.439,36.219c-10.977.039-17.742,5.027-17.7,17.752.049,13.213,8.327,21.364,21.54,21.317a27.073,27.073,0,0,0,14.527-4.317l.026,6.993c-4.466,2.532-10.476,3.462-15.3,3.479C75.084,81.5,62.4,72.6,62.333,54c-.06-16.779,10.749-23.949,24.033-24a76.123,76.123,0,0,1,19.378,2.938l.028,7.48c-3.646-2.574-12.251-4.222-18.333-4.2Z" transform="translate(-10.747 -30)"/><path class="cls-1" d="M151.655,79.618c-.17-.839-.09-1.678-2.2-6.215-1.523-3.421-3.129-6.468-4.651-9.889l-21.476.076c-1.5,3.5-3,6.561-4.577,9.992a32.925,32.925,0,0,0-1.991,6.16l-9.2.033s1.088-.982,3.5-6.584c1.83-4.271,14.066-31.722,15.9-35.993,2.079-4.691,2.16-5.741,2.16-5.741l10-.037s.087,1.258,2.033,5.656c1.86,4.259,13.953,31.412,15.9,35.741,2.79,6.073,3.915,6.768,3.915,6.768l-9.312.033ZM133.809,38.642c-2.745,6.371-5.389,12.557-8.218,18.929l17.2-.061c-2.958-6.351-6.019-12.517-8.979-18.868Z" transform="translate(-10.747 -30)"/><path class="cls-1" d="M195.027,79.464c-1.18-1.184-2.441-2.369-3.7-3.553l-20.2-17.756.056,15.591c.007,2.237.185,4.964.607,5.8l-8.232.032c.5-1.191.493-3.148.483-5.8l-.131-36.7a40.369,40.369,0,0,0-.44-5.732c6.292-.023,11.753-.883,17.876-.905,9.4-.033,16.456,3.3,16.485,11.827.031,8.669-6.494,13.867-17.563,15.234,6.311,5.361,12.622,10.862,18.933,16.294a56.877,56.877,0,0,0,7.152,5.636l-11.326.041Zm-15.843-43.85c-2.685.009-5.285.368-8.135.658l.057,15.545c1.763.134,3.357.268,5.119.262,7.383-.027,13.666-1.472,13.64-8.673-.02-5.943-4.137-7.816-10.681-7.792Z" transform="translate(-10.747 -30)"/><path class="cls-1" d="M46.649,79.78s-1.188-2.025-3.912-5.868c-8.171-11.175-16.274-22.49-24.376-33.735v33.6c0,5.029.349,6.007.349,6.007H10.747a26.824,26.824,0,0,0,.419-6.077V38.57a46.32,46.32,0,0,0-.349-6.984H21.154s.42,1.187,3.983,6.146c2.932,4.052,21.3,29.545,24.235,33.6V38.291a37.53,37.53,0,0,0-.349-6.7h7.964a34.709,34.709,0,0,0-.42,6.7V72.725c0,6.357.28,6.357.42,7.055Z" transform="translate(-10.747 -30)"/><polygon class="cls-1" points="0 68.888 0 64.388 195.606 64.388 195.606 68.888 0 68.888 0 68.888"/></svg>