<?xml version="1.0" encoding="UTF-8"?>
<!DOCTYPE svg PUBLIC "-//W3C//DTD SVG 1.1//EN" "http://www.w3.org/Graphics/SVG/1.1/DTD/svg11.dtd">
<svg xmlns="http://www.w3.org/2000/svg" version="1.1" width="400px" height="400px" style="shape-rendering:geometricPrecision; text-rendering:geometricPrecision; image-rendering:optimizeQuality; fill-rule:evenodd; clip-rule:evenodd" xmlns:xlink="http://www.w3.org/1999/xlink">
<g><path style="opacity:1" fill="#fefefe" d="M -0.5,-0.5 C 132.833,-0.5 266.167,-0.5 399.5,-0.5C 399.5,132.833 399.5,266.167 399.5,399.5C 266.167,399.5 132.833,399.5 -0.5,399.5C -0.5,266.167 -0.5,132.833 -0.5,-0.5 Z"/></g>
<g><path style="opacity:1" fill="#f1929c" d="M 163.5,80.5 C 191.328,79.502 219.328,79.1687 247.5,79.5C 247.831,102.339 247.497,125.006 246.5,147.5C 246.5,125.167 246.5,102.833 246.5,80.5C 218.833,80.5 191.167,80.5 163.5,80.5 Z"/></g>
<g><path style="opacity:1" fill="#e53645" d="M 163.5,80.5 C 191.167,80.5 218.833,80.5 246.5,80.5C 246.5,102.833 246.5,125.167 246.5,147.5C 244.855,160.975 238.189,171.142 226.5,178C 218.199,183.215 209.199,185.548 199.5,185C 186.834,181.327 176.667,174.16 169,163.5C 166.534,158.768 164.867,153.768 164,148.5C 163.5,125.836 163.333,103.169 163.5,80.5 Z"/></g>
<g><path style="opacity:1" fill="#fde8ea" d="M 165.5,82.5 C 192.167,82.5 218.833,82.5 245.5,82.5C 245.667,103.836 245.5,125.169 245,146.5C 240.337,168.324 226.837,180.657 204.5,183.5C 184.584,180.079 171.751,168.746 166,149.5C 165.5,127.169 165.333,104.836 165.5,82.5 Z"/></g>
<g><path style="opacity:1" fill="#e31a37" d="M 241.5,146.5 C 239.361,161.817 231.027,172.317 216.5,178C 214.26,178.977 211.927,179.477 209.5,179.5C 207.51,157.191 206.844,134.525 207.5,111.5C 218.833,111.5 230.167,111.5 241.5,111.5C 241.5,123.167 241.5,134.833 241.5,146.5 Z"/></g>
<g><path style="opacity:1" fill="#fbcfd4" d="M 222.5,147.5 C 223.978,147.238 225.311,147.571 226.5,148.5C 225.68,150.111 224.346,150.778 222.5,150.5C 222.5,149.5 222.5,148.5 222.5,147.5 Z"/></g>
<g><path style="opacity:1" fill="#fbe2e5" d="M 230.5,145.5 C 233.595,146.119 233.929,147.119 231.5,148.5C 229.481,147.867 229.147,146.867 230.5,145.5 Z"/></g>
<g><path style="opacity:1" fill="#fce8ea" d="M 217.5,145.5 C 219.625,146.368 219.791,147.368 218,148.5C 216.317,147.824 216.15,146.824 217.5,145.5 Z"/></g>
<g><path style="opacity:1" fill="#e4344a" d="M 241.5,146.5 C 241.5,134.833 241.5,123.167 241.5,111.5C 230.167,111.5 218.833,111.5 207.5,111.5C 206.844,134.525 207.51,157.191 209.5,179.5C 208.791,180.404 207.791,180.737 206.5,180.5C 206.5,157.167 206.5,133.833 206.5,110.5C 218.5,110.5 230.5,110.5 242.5,110.5C 242.828,122.678 242.495,134.678 241.5,146.5 Z"/></g>
<g><path style="opacity:1" fill="#f296a1" d="M 214.5,124.5 C 214.807,130.093 214.473,135.593 213.5,141C 216.746,140.683 220.08,140.517 223.5,140.5C 223.5,135.5 223.5,130.5 223.5,125.5C 224.167,125.5 224.833,125.5 225.5,125.5C 225.5,130.5 225.5,135.5 225.5,140.5C 228.5,140.5 231.5,140.5 234.5,140.5C 234.5,135.167 234.5,129.833 234.5,124.5C 235.833,124.5 237.167,124.5 238.5,124.5C 238.829,130.537 238.496,136.537 237.5,142.5C 229.155,145.006 220.821,145.006 212.5,142.5C 211.504,136.537 211.171,130.537 211.5,124.5C 212.5,124.5 213.5,124.5 214.5,124.5 Z"/></g>
<g><path style="opacity:1" fill="#fde6e8" d="M 234.5,124.5 C 234.5,129.833 234.5,135.167 234.5,140.5C 231.5,140.5 228.5,140.5 225.5,140.5C 225.5,135.5 225.5,130.5 225.5,125.5C 228.287,124.523 231.287,124.19 234.5,124.5 Z"/></g>
<g><path style="opacity:1" fill="#f5a7b0" d="M 226.5,128.5 C 228.5,128.5 230.5,128.5 232.5,128.5C 232.773,130.451 232.107,131.951 230.5,133C 233.167,133.667 233.167,134.333 230.5,135C 232.878,135.974 232.544,136.641 229.5,137C 233.424,137.799 233.424,138.299 229.5,138.5C 228.5,138.333 227.5,138.167 226.5,138C 226.678,135.045 226.678,131.879 226.5,128.5 Z"/></g>
<g><path style="opacity:1" fill="#fde4e7" d="M 214.5,124.5 C 217.713,124.19 220.713,124.523 223.5,125.5C 223.5,130.5 223.5,135.5 223.5,140.5C 220.08,140.517 216.746,140.683 213.5,141C 214.473,135.593 214.807,130.093 214.5,124.5 Z"/></g>
<g><path style="opacity:1" fill="#f6adb4" d="M 216.5,128.5 C 218.5,128.5 220.5,128.5 222.5,128.5C 222.322,131.879 222.322,135.045 222.5,138C 220.5,138.667 218.5,138.667 216.5,138C 220.449,137.193 220.449,136.693 216.5,136.5C 216.5,133.833 216.5,131.167 216.5,128.5 Z"/></g>
<g><path style="opacity:1" fill="#e31b37" d="M 168.5,110.5 C 180.167,110.5 191.833,110.5 203.5,110.5C 203.5,133.833 203.5,157.167 203.5,180.5C 186.003,177.343 174.503,167.343 169,150.5C 168.5,137.171 168.333,123.837 168.5,110.5 Z"/></g>
<g><path style="opacity:1" fill="#f38a95" d="M 189.5,150.5 C 188.811,151.774 187.977,151.774 187,150.5C 185.858,144.596 187.192,143.596 191,147.5C 192.351,145.981 193.851,144.648 195.5,143.5C 196.604,144.631 196.271,145.465 194.5,146C 196.283,147.067 196.783,148.567 196,150.5C 193.882,150.264 191.716,150.264 189.5,150.5 Z"/></g>
<g><path style="opacity:1" fill="#e42942" d="M 189.5,150.5 C 187.915,149.998 187.415,148.998 188,147.5C 189.039,148.244 189.539,149.244 189.5,150.5 Z"/></g>
<g><path style="opacity:1" fill="#f6b5bd" d="M 176.5,144.5 C 177.693,144.97 178.36,145.97 178.5,147.5C 178.167,148.5 177.833,149.5 177.5,150.5C 176.534,148.604 176.201,146.604 176.5,144.5 Z"/></g>
<g><path style="opacity:1" fill="#f2939f" d="M 180.5,145.5 C 182.035,144.212 183.701,144.212 185.5,145.5C 184.586,147.664 183.419,149.664 182,151.5C 181.376,149.536 181.876,147.869 183.5,146.5C 182.675,145.614 181.675,145.281 180.5,145.5 Z"/></g>
<g><path style="opacity:1" fill="#f4a0a9" d="M 176.5,134.5 C 177.29,135.609 177.79,136.942 178,138.5C 178.483,137.552 178.649,136.552 178.5,135.5C 179.5,135.5 180.5,135.5 181.5,135.5C 182.004,139.335 183.004,139.335 184.5,135.5C 185.738,139.311 186.404,139.311 186.5,135.5C 187.5,135.5 188.5,135.5 189.5,135.5C 189.833,139.5 190.167,139.5 190.5,135.5C 191.5,135.5 192.5,135.5 193.5,135.5C 193.285,137.179 193.952,138.179 195.5,138.5C 195.5,139.833 195.5,141.167 195.5,142.5C 189.167,142.5 182.833,142.5 176.5,142.5C 176.5,139.833 176.5,137.167 176.5,134.5 Z"/></g>
<g><path style="opacity:1" fill="#fcdde0" d="M 195.5,138.5 C 193.952,138.179 193.285,137.179 193.5,135.5C 192.5,135.5 191.5,135.5 190.5,135.5C 190.167,139.5 189.833,139.5 189.5,135.5C 188.5,135.5 187.5,135.5 186.5,135.5C 186.404,139.311 185.738,139.311 184.5,135.5C 183.004,139.335 182.004,139.335 181.5,135.5C 180.5,135.5 179.5,135.5 178.5,135.5C 178.649,136.552 178.483,137.552 178,138.5C 177.79,136.942 177.29,135.609 176.5,134.5C 174.469,131.487 174.135,128.321 175.5,125C 182.437,124.844 189.437,124.844 196.5,125C 199.183,127.969 199.016,130.802 196,133.5C 195.506,135.134 195.34,136.801 195.5,138.5 Z"/></g>
<g><path style="opacity:1" fill="#ee7283" d="M 187.5,127.5 C 187.5,129.5 187.5,131.5 187.5,133.5C 189.5,133.5 191.5,133.5 193.5,133.5C 191.393,134.468 189.059,134.802 186.5,134.5C 186.198,131.941 186.532,129.607 187.5,127.5 Z"/></g>
<g><path style="opacity:1" fill="#e31c37" d="M 193.5,133.5 C 191.5,133.5 189.5,133.5 187.5,133.5C 187.5,131.5 187.5,129.5 187.5,127.5C 190.167,127.167 192.833,126.833 195.5,126.5C 195.606,129.079 194.939,131.412 193.5,133.5 Z"/></g>
<g><path style="opacity:1" fill="#e31b36" d="M 176.5,126.5 C 179.167,126.833 181.833,127.167 184.5,127.5C 184.5,129.5 184.5,131.5 184.5,133.5C 178.666,134.663 176,132.329 176.5,126.5 Z"/></g>
<g><path style="opacity:1" fill="#fbccd1" d="M 184.5,119.5 C 185.5,119.5 186.5,119.5 187.5,119.5C 187.5,120.5 187.5,121.5 187.5,122.5C 186.5,122.5 185.5,122.5 184.5,122.5C 184.5,121.5 184.5,120.5 184.5,119.5 Z"/></g>
<g><path style="opacity:1" fill="#f3a0ad" d="M 236.5,106.5 C 238.265,107.461 240.265,107.795 242.5,107.5C 240.307,108.797 237.973,108.797 235.5,107.5C 235.624,106.893 235.957,106.56 236.5,106.5 Z"/></g>
<g><path style="opacity:1" fill="#f39fab" d="M 169.5,102.5 C 168.549,103.919 168.216,105.585 168.5,107.5C 170.735,107.795 172.735,107.461 174.5,106.5C 175.043,106.56 175.376,106.893 175.5,107.5C 172.914,108.48 170.247,108.813 167.5,108.5C 167.192,106.076 167.526,103.743 168.5,101.5C 169.107,101.624 169.44,101.957 169.5,102.5 Z"/></g>
<g><path style="opacity:1" fill="#e31a31" d="M 169.5,102.5 C 170.945,104.063 172.611,105.396 174.5,106.5C 172.735,107.461 170.735,107.795 168.5,107.5C 168.216,105.585 168.549,103.919 169.5,102.5 Z"/></g>
<g><path style="opacity:1" fill="#e31835" d="M 242.5,107.5 C 240.265,107.795 238.265,107.461 236.5,106.5C 238.148,105.19 239.814,103.857 241.5,102.5C 242.452,104.045 242.785,105.712 242.5,107.5 Z"/></g>
<g><path style="opacity:1" fill="#e63142" d="M 220.5,84.5 C 222.924,84.1924 225.257,84.5258 227.5,85.5C 224.169,92.1659 220.336,98.4992 216,104.5C 217.172,97.8034 218.672,91.1367 220.5,84.5 Z"/></g>
<g><path style="opacity:1" fill="#e4253c" d="M 169.5,87.5 C 174.035,94.0589 178.701,100.559 183.5,107C 181.711,107.52 180.044,107.187 178.5,106C 175.316,103.248 171.982,100.748 168.5,98.5C 168.185,94.6286 168.518,90.9619 169.5,87.5 Z"/></g>
<g><path style="opacity:1" fill="#e21734" d="M 216.5,87.5 C 214.965,91.4379 213.632,95.4379 212.5,99.5C 211.514,95.03 211.181,90.3633 211.5,85.5C 213.781,85.0773 215.448,85.744 216.5,87.5 Z"/></g>
<g><path style="opacity:1" fill="#e4273d" d="M 241.5,86.5 C 242.645,90.3112 242.812,94.3112 242,98.5C 237.656,101.515 233.323,104.515 229,107.5C 227.743,107.15 227.409,106.483 228,105.5C 232.51,99.1375 237.01,92.8041 241.5,86.5 Z"/></g>
<g><path style="opacity:1" fill="#f5aeb6" d="M 199.5,84.5 C 200.653,90.3188 200.819,96.3188 200,102.5C 199.283,101.956 198.783,101.289 198.5,100.5C 199.488,95.3595 199.821,90.0262 199.5,84.5 Z"/></g>
<g><path style="opacity:1" fill="#e52e41" d="M 169.5,86.5 C 170.871,85.2132 172.705,84.5465 175,84.5C 176.833,84.8333 178.667,85.1667 180.5,85.5C 184.238,92.2304 187.071,99.2304 189,106.5C 182.919,99.2549 176.419,92.5882 169.5,86.5 Z"/></g>
<g><path style="opacity:1" fill="#e31e37" d="M 202.5,85.5 C 204.167,85.5 205.833,85.5 207.5,85.5C 207.5,86.5 207.5,87.5 207.5,88.5C 207.175,92.9468 206.342,97.2802 205,101.5C 204.483,96.1022 203.649,90.7689 202.5,85.5 Z"/></g>
<g><path style="opacity:1" fill="#f08a98" d="M 169.5,86.5 C 169.5,86.8333 169.5,87.1667 169.5,87.5C 168.518,90.9619 168.185,94.6286 168.5,98.5C 167.353,94.3537 167.186,90.0204 168,85.5C 168.383,86.056 168.883,86.3893 169.5,86.5 Z"/></g>
<g><path style="opacity:1" fill="#e4243b" d="M 199.5,84.5 C 199.821,90.0262 199.488,95.3595 198.5,100.5C 196.829,95.1551 195.163,89.8217 193.5,84.5C 195.5,84.5 197.5,84.5 199.5,84.5 Z"/></g>
<g><path style="opacity:1" fill="#e52e41" d="M 182.5,84.5 C 185.167,84.5 187.833,84.5 190.5,84.5C 192.159,90.791 193.326,97.1243 194,103.5C 189.642,97.4435 185.808,91.1102 182.5,84.5 Z"/></g>
<g><path style="opacity:1" fill="#e52e41" d="M 230.5,84.5 C 234.182,84.3347 237.848,84.5014 241.5,85C 234.667,92.5 227.833,100 221,107.5C 223.564,99.6901 226.73,92.0234 230.5,84.5 Z"/></g>
<g><path style="opacity:1" fill="#eb6976" d="M 216.5,87.5 C 215.448,85.744 213.781,85.0773 211.5,85.5C 211.181,90.3633 211.514,95.03 212.5,99.5C 212.013,100.473 211.513,101.473 211,102.5C 210.501,96.5092 210.334,90.5092 210.5,84.5C 212.833,84.5 215.167,84.5 217.5,84.5C 217.737,85.791 217.404,86.791 216.5,87.5 Z"/></g>
<g><path style="opacity:1" fill="#eb6a78" d="M 202.5,85.5 C 204.265,84.5386 206.265,84.2053 208.5,84.5C 208.768,86.099 208.434,87.4324 207.5,88.5C 207.5,87.5 207.5,86.5 207.5,85.5C 205.833,85.5 204.167,85.5 202.5,85.5 Z"/></g>
<g><path style="opacity:1" fill="#ee7284" d="M 125.5,225.5 C 121.167,224.167 116.833,224.167 112.5,225.5C 111.957,225.44 111.624,225.107 111.5,224.5C 116.5,223.167 121.5,223.167 126.5,224.5C 126.376,225.107 126.043,225.44 125.5,225.5 Z"/></g>
<g><path style="opacity:1" fill="#ed7384" d="M 154.5,224.5 C 149.637,224.181 144.97,224.514 140.5,225.5C 139.957,225.44 139.624,225.107 139.5,224.5C 144.652,223.186 149.652,223.186 154.5,224.5 Z"/></g>
<g><path style="opacity:1" fill="#ec7283" d="M 263.5,224.5 C 254.651,224.174 245.984,224.507 237.5,225.5C 236.957,225.44 236.624,225.107 236.5,224.5C 245.658,223.178 254.658,223.178 263.5,224.5 Z"/></g>
<g><path style="opacity:1" fill="#e4293e" d="M 287.5,247.5 C 286.081,246.549 284.415,246.216 282.5,246.5C 282.179,252.026 282.512,257.36 283.5,262.5C 284.209,263.404 285.209,263.737 286.5,263.5C 282.03,264.486 277.363,264.819 272.5,264.5C 273.568,263.566 274.901,263.232 276.5,263.5C 276.5,250.833 276.5,238.167 276.5,225.5C 275.022,225.762 273.689,225.429 272.5,224.5C 281.294,222.97 289.961,223.47 298.5,226C 302.847,229.737 303.681,234.237 301,239.5C 298.957,241.712 296.791,243.712 294.5,245.5C 296.746,250.326 299.246,254.992 302,259.5C 303.637,261.81 305.804,263.31 308.5,264C 305.5,264.667 302.5,264.667 299.5,264C 295.934,259.977 293.1,255.477 291,250.5C 289.961,249.29 288.794,248.29 287.5,247.5 Z"/></g>
<g><path style="opacity:1" fill="#fef7f7" d="M 283.5,226.5 C 295.761,226.016 299.261,231.349 294,242.5C 292.416,243.861 290.582,244.528 288.5,244.5C 286.833,244.5 285.167,244.5 283.5,244.5C 283.5,238.5 283.5,232.5 283.5,226.5 Z"/></g>
<g><path style="opacity:1" fill="#f2939e" d="M 263.5,226.5 C 264.797,228.693 264.797,231.027 263.5,233.5C 262.893,233.376 262.56,233.043 262.5,232.5C 263.461,230.735 263.795,228.735 263.5,226.5 Z"/></g>
<g><path style="opacity:1" fill="#e4253c" d="M 332.5,225.5 C 332.802,228.059 332.468,230.393 331.5,232.5C 329.994,225.954 325.994,223.787 319.5,226C 316.136,229.026 315.636,232.526 318,236.5C 321.752,239.629 325.919,242.129 330.5,244C 336.793,250.014 337.127,256.348 331.5,263C 325.043,266.074 318.543,266.24 312,263.5C 310.894,259.878 310.561,256.211 311,252.5C 313.637,261.898 319.47,265.065 328.5,262C 331.844,256.406 330.844,251.74 325.5,248C 319.484,246.265 314.984,242.765 312,237.5C 309.727,230.753 311.894,226.253 318.5,224C 322.5,223.333 326.5,223.333 330.5,224C 331.416,224.278 332.082,224.778 332.5,225.5 Z"/></g>
<g><path style="opacity:1" fill="#f28f9c" d="M 332.5,225.5 C 333.8,228.024 333.8,230.691 332.5,233.5C 331.893,233.376 331.56,233.043 331.5,232.5C 332.468,230.393 332.802,228.059 332.5,225.5 Z"/></g>
<g><path style="opacity:1" fill="#ef7083" d="M 150.5,226.5 C 150.5,239.5 150.5,252.5 150.5,265.5C 149.209,265.737 148.209,265.404 147.5,264.5C 149.16,252.033 150.16,239.366 150.5,226.5 Z"/></g>
<g><path style="opacity:1" fill="#f3aab4" d="M 283.5,226.5 C 283.5,232.5 283.5,238.5 283.5,244.5C 285.167,244.5 286.833,244.5 288.5,244.5C 286.735,245.461 284.735,245.795 282.5,245.5C 282.177,238.978 282.51,232.645 283.5,226.5 Z"/></g>
<g><path style="opacity:1" fill="#e4253b" d="M 86.5,263.5 C 81.1667,264.833 75.8333,264.833 70.5,263.5C 72.1439,263.714 73.6439,263.38 75,262.5C 75.6667,247.5 75.6667,232.5 75,217.5C 73.2663,216.751 71.433,216.251 69.5,216C 79.5745,215.077 89.5745,215.41 99.5,217C 106.792,221.676 108.292,227.842 104,235.5C 101.957,237.712 99.7908,239.712 97.5,241.5C 102.775,257.226 111.442,270.726 123.5,282C 126.214,283.794 129.214,284.96 132.5,285.5C 130.235,286.647 127.902,286.814 125.5,286C 121.6,284.435 117.934,282.435 114.5,280C 104.885,269.951 97.3848,258.451 92,245.5C 91.5,245 91,244.5 90.5,244C 87.5184,243.502 84.5184,243.335 81.5,243.5C 81.3338,249.842 81.5005,256.175 82,262.5C 83.3561,263.38 84.8561,263.714 86.5,263.5 Z"/></g>
<g><path style="opacity:1" fill="#fef6f7" d="M 81.5,217.5 C 94.3225,215.496 100.156,220.829 99,233.5C 97.7296,237.77 94.8963,240.27 90.5,241C 87.5184,241.498 84.5184,241.665 81.5,241.5C 81.5,233.5 81.5,225.5 81.5,217.5 Z"/></g>
<g><path style="opacity:1" fill="#e9455a" d="M 247.5,225.5 C 247.5,231.167 247.5,236.833 247.5,242.5C 251.182,242.665 254.848,242.499 258.5,242C 259.071,240.795 259.738,239.628 260.5,238.5C 261.833,242.167 261.833,245.833 260.5,249.5C 259.756,248.009 259.09,246.509 258.5,245C 254.848,244.501 251.182,244.335 247.5,244.5C 247.5,250.5 247.5,256.5 247.5,262.5C 246.167,250.167 246.167,237.833 247.5,225.5 Z"/></g>
<g><path style="opacity:1" fill="#e31b36" d="M 237.5,225.5 C 245.984,224.507 254.651,224.174 263.5,224.5C 263.5,225.167 263.5,225.833 263.5,226.5C 263.795,228.735 263.461,230.735 262.5,232.5C 262.556,229.439 261.222,227.272 258.5,226C 254.848,225.501 251.182,225.335 247.5,225.5C 246.167,237.833 246.167,250.167 247.5,262.5C 252.207,263.923 256.874,263.756 261.5,262C 263.617,260.269 265.117,258.102 266,255.5C 266.736,258.592 266.569,261.592 265.5,264.5C 255.985,264.827 246.652,264.494 237.5,263.5C 238.822,263.67 239.989,263.337 241,262.5C 241.5,250.171 241.667,237.838 241.5,225.5C 240.167,225.5 238.833,225.5 237.5,225.5 Z"/></g>
<g><path style="opacity:1" fill="#e95c6b" d="M 230.5,250.5 C 227.833,249.167 225.167,249.167 222.5,250.5C 220.712,250.785 219.045,250.452 217.5,249.5C 222.833,248.167 228.167,248.167 233.5,249.5C 232.675,250.386 231.675,250.719 230.5,250.5 Z"/></g>
<g><path style="opacity:1" fill="#e52b3e" d="M 222.5,250.5 C 225.167,249.167 227.833,249.167 230.5,250.5C 229.515,254.634 229.182,258.968 229.5,263.5C 219.61,266.602 209.943,266.102 200.5,262C 191.271,252.429 190.105,241.929 197,230.5C 202.258,225.412 208.591,223.079 216,223.5C 219.995,223.353 223.828,224.02 227.5,225.5C 228.259,228.157 228.926,230.823 229.5,233.5C 229.167,233.833 228.833,234.167 228.5,234.5C 224.948,225.91 218.615,223.076 209.5,226C 204.536,227.96 201.369,231.46 200,236.5C 196.438,255.758 204.271,264.758 223.5,263.5C 223.769,259.069 223.436,254.735 222.5,250.5 Z"/></g>
<g><path style="opacity:1" fill="#e52f41" d="M 181.5,263.5 C 176.167,264.833 170.833,264.833 165.5,263.5C 167.144,263.714 168.644,263.38 170,262.5C 170.5,250.171 170.667,237.838 170.5,225.5C 166.692,225.163 163.026,225.663 159.5,227C 158.283,228.648 157.45,230.481 157,232.5C 156.502,229.518 156.335,226.518 156.5,223.5C 167.838,223.333 179.172,223.5 190.5,224C 191.787,227.125 191.787,230.291 190.5,233.5C 189.402,231.368 188.402,229.202 187.5,227C 183.974,225.663 180.308,225.163 176.5,225.5C 176.333,237.838 176.5,250.171 177,262.5C 178.356,263.38 179.856,263.714 181.5,263.5 Z"/></g>
<g><path style="opacity:1" fill="#f2a3ad" d="M 287.5,247.5 C 286.167,247.5 284.833,247.5 283.5,247.5C 283.5,252.5 283.5,257.5 283.5,262.5C 282.512,257.36 282.179,252.026 282.5,246.5C 284.415,246.216 286.081,246.549 287.5,247.5 Z"/></g>
<g><path style="opacity:1" fill="#e42a3e" d="M 112.5,225.5 C 116.833,224.167 121.167,224.167 125.5,225.5C 124.5,225.5 123.5,225.5 122.5,225.5C 122.334,235.839 122.5,246.172 123,256.5C 124.023,262.019 127.356,264.352 133,263.5C 137.294,263.852 140.96,262.518 144,259.5C 144.667,248.5 144.667,237.5 144,226.5C 142.989,225.663 141.822,225.33 140.5,225.5C 144.97,224.514 149.637,224.181 154.5,224.5C 153.167,225.167 151.833,225.833 150.5,226.5C 150.16,239.366 149.16,252.033 147.5,264.5C 147.038,263.12 146.038,262.453 144.5,262.5C 137.734,265.239 130.734,266.072 123.5,265C 121.376,263.878 119.543,262.378 118,260.5C 116.733,249.238 116.066,237.905 116,226.5C 114.989,225.663 113.822,225.33 112.5,225.5 Z"/></g>
<g><path style="opacity:1" fill="#f19aa4" d="M 70.5,263.5 C 75.8333,264.833 81.1667,264.833 86.5,263.5C 87.0431,263.56 87.3764,263.893 87.5,264.5C 81.5,265.833 75.5,265.833 69.5,264.5C 69.6236,263.893 69.9569,263.56 70.5,263.5 Z"/></g>
<g><path style="opacity:1" fill="#f09ba4" d="M 165.5,263.5 C 170.833,264.833 176.167,264.833 181.5,263.5C 182.043,263.56 182.376,263.893 182.5,264.5C 176.5,265.833 170.5,265.833 164.5,264.5C 164.624,263.893 164.957,263.56 165.5,263.5 Z"/></g>
<g><path style="opacity:1" fill="#f19ca5" d="M 237.5,263.5 C 246.652,264.494 255.985,264.827 265.5,264.5C 255.992,265.823 246.325,265.823 236.5,264.5C 236.624,263.893 236.957,263.56 237.5,263.5 Z"/></g>
<g><path style="opacity:1" fill="#f199a3" d="M 286.5,263.5 C 287.043,263.56 287.376,263.893 287.5,264.5C 282.348,265.814 277.348,265.814 272.5,264.5C 277.363,264.819 282.03,264.486 286.5,263.5 Z"/></g>
<g><path style="opacity:1" fill="#a4aaae" d="M 185.5,286.5 C 190.797,287.032 190.797,287.866 185.5,289C 187.327,289.899 188.66,291.233 189.5,293C 188.499,295.502 186.833,296.002 184.5,294.5C 185.5,293.833 186.5,293.167 187.5,292.5C 184.61,291.163 183.943,289.163 185.5,286.5 Z"/></g>
<g><path style="opacity:1" fill="#a5aaaf" d="M 147.5,286.5 C 149.288,286.215 150.955,286.548 152.5,287.5C 151.119,289.635 150.119,291.968 149.5,294.5C 148.619,291.87 147.952,289.203 147.5,286.5 Z"/></g>
<g><path style="opacity:1" fill="#a4aaaf" d="M 193.5,286.5 C 195.604,286.201 197.604,286.534 199.5,287.5C 198.078,289.965 197.078,292.631 196.5,295.5C 195.745,292.348 194.745,289.348 193.5,286.5 Z"/></g>
<g><path style="opacity:1" fill="#6a747c" d="M 214.5,288.5 C 214.56,287.957 214.893,287.624 215.5,287.5C 216.647,289.765 216.814,292.098 216,294.5C 215.809,292.292 215.309,290.292 214.5,288.5 Z"/></g>
<g><path style="opacity:1" fill="#adb2b6" d="M 316.5,286.5 C 318.604,286.201 320.604,286.534 322.5,287.5C 321.119,289.635 320.119,291.968 319.5,294.5C 318.68,291.699 317.68,289.032 316.5,286.5 Z"/></g>
<g><path style="opacity:1" fill="#98a0a5" d="M 327.5,287.5 C 329.068,289.931 330.568,289.931 332,287.5C 330.35,296.483 328.85,296.483 327.5,287.5 Z"/></g>
<g><path style="opacity:1" fill="#848c92" d="M 157.5,287.5 C 158.404,288.209 158.737,289.209 158.5,290.5C 159.833,290.5 161.167,290.5 162.5,290.5C 163.833,290.833 163.833,291.167 162.5,291.5C 161.167,291.5 159.833,291.5 158.5,291.5C 158.649,292.552 158.483,293.552 158,294.5C 157.503,292.19 157.337,289.857 157.5,287.5 Z"/></g>
<g><path style="opacity:1" fill="#8d959a" d="M 169.5,286.5 C 174.11,286.596 174.444,287.596 170.5,289.5C 174.311,290.738 174.311,291.404 170.5,291.5C 170.649,292.552 170.483,293.552 170,294.5C 169.503,291.854 169.336,289.187 169.5,286.5 Z"/></g>
<g><path style="opacity:1" fill="#9fa5aa" d="M 301.5,286.5 C 306.658,287.484 306.658,288.317 301.5,289C 306.188,290.802 306.521,292.968 302.5,295.5C 301.833,295.167 301.167,294.833 300.5,294.5C 301.5,293.833 302.5,293.167 303.5,292.5C 300.61,291.163 299.943,289.163 301.5,286.5 Z"/></g>
<g><path style="opacity:1" fill="#9fa6aa" d="M 289.5,286.5 C 291.722,286.178 293.556,286.845 295,288.5C 294.009,290.447 293.675,292.447 294,294.5C 293.085,293.672 292.419,292.672 292,291.5C 291.751,292.624 291.251,293.624 290.5,294.5C 289.52,291.914 289.187,289.247 289.5,286.5 Z"/></g>
<g><path style="opacity:1" fill="#949ca1" d="M 205.5,287.5 C 206.496,287.414 207.329,287.748 208,288.5C 208.681,290.529 209.014,292.529 209,294.5C 207.216,291.997 205.549,291.997 204,294.5C 203.761,292.041 204.261,289.707 205.5,287.5 Z"/></g>
<g><path style="opacity:1" fill="#8c9499" d="M 250.5,287.5 C 252.888,288.219 254.388,289.885 255,292.5C 255.333,290.833 255.667,289.167 256,287.5C 256.91,295.57 255.577,296.237 252,289.5C 251.667,291.167 251.333,292.833 251,294.5C 250.503,292.19 250.337,289.857 250.5,287.5 Z"/></g>
<g><path style="opacity:1" fill="#9da3a7" d="M 268.5,288.5 C 269.077,287.227 269.743,287.227 270.5,288.5C 271.098,289.795 271.598,291.128 272,292.5C 272.216,290.616 272.883,288.949 274,287.5C 274.018,289.797 273.851,292.131 273.5,294.5C 272.5,294.5 271.5,294.5 270.5,294.5C 270.405,292.214 269.738,290.214 268.5,288.5 Z"/></g>
<g><path style="opacity:1" fill="#aab0b4" d="M 280.5,286.5 C 285.11,286.596 285.444,287.596 281.5,289.5C 282.376,290.251 283.376,290.751 284.5,291C 280.622,291.949 280.622,293.115 284.5,294.5C 282.994,295.747 281.494,295.747 280,294.5C 279.278,291.739 279.445,289.073 280.5,286.5 Z"/></g>
<g><path style="opacity:1" fill="#b4b9bd" d="M 238.5,286.5 C 240.344,288.279 241.01,290.612 240.5,293.5C 241.5,293.5 242.5,293.5 243.5,293.5C 243.201,291.396 243.534,289.396 244.5,287.5C 246.298,291.113 245.465,293.78 242,295.5C 240.739,295.241 239.739,294.574 239,293.5C 238.503,291.19 238.337,288.857 238.5,286.5 Z"/></g>
<g><path style="opacity:1" fill="#a1a7ac" d="M 244.5,300.5 C 249.041,300.331 249.374,300.998 245.5,302.5C 247.978,303.722 248.978,305.722 248.5,308.5C 246.712,308.785 245.045,308.452 243.5,307.5C 244.376,306.749 245.376,306.249 246.5,306C 243.918,304.662 243.251,302.829 244.5,300.5 Z"/></g>
<g><path style="opacity:1" fill="#9aa1a6" d="M 159.5,300.5 C 161.199,300.34 162.866,300.506 164.5,301C 160.622,301.949 160.622,303.115 164.5,304.5C 163.675,305.386 162.675,305.719 161.5,305.5C 161.719,306.675 161.386,307.675 160.5,308.5C 159.52,305.914 159.187,303.247 159.5,300.5 Z"/></g>
<g><path style="opacity:1" fill="#9ca4a8" d="M 186.5,300.5 C 188.199,300.34 189.866,300.506 191.5,301C 188.332,301.582 187.999,302.582 190.5,304C 187.833,305.333 187.833,306.667 190.5,308C 189.207,308.49 187.873,308.657 186.5,308.5C 186.5,305.833 186.5,303.167 186.5,300.5 Z"/></g>
<g><path style="opacity:1" fill="#aeb3b7" d="M 195.5,300.5 C 196.75,300.577 197.583,301.244 198,302.5C 198.689,301.643 199.522,300.977 200.5,300.5C 201.243,301.908 202.077,303.241 203,304.5C 203.219,303.062 203.719,301.729 204.5,300.5C 204.833,300.833 205.167,301.167 205.5,301.5C 204.811,303.444 204.311,305.444 204,307.5C 202.594,308.668 201.428,308.335 200.5,306.5C 199.742,307.811 198.742,308.311 197.5,308C 196.645,305.564 195.979,303.064 195.5,300.5 Z"/></g>
<g><path style="opacity:1" fill="#9fa6ab" d="M 233.5,300.5 C 235.144,300.286 236.644,300.62 238,301.5C 237.609,303.891 237.609,306.224 238,308.5C 236.684,305.972 235.517,305.972 234.5,308.5C 233.52,305.914 233.187,303.247 233.5,300.5 Z"/></g>
<g><path style="opacity:1" fill="#a1a7ac" d="M 174.5,300.5 C 176.888,301.219 178.388,302.885 179,305.5C 179.202,303.744 179.702,302.078 180.5,300.5C 182.33,309.228 180.83,310.228 176,303.5C 175.667,305.167 175.333,306.833 175,308.5C 174.503,305.854 174.336,303.187 174.5,300.5 Z"/></g>
<g><path style="opacity:1" fill="#949ba0" d="M 263.5,301.5 C 263.56,300.957 263.893,300.624 264.5,300.5C 267.33,302.658 267.997,305.324 266.5,308.5C 265.868,305.898 264.868,303.564 263.5,301.5 Z"/></g>
<g><path style="opacity:1" fill="#a2a8ad" d="M 149.5,301.5 C 150.884,300.199 152.384,300.199 154,301.5C 155.67,308.18 153.67,309.846 148,306.5C 147.833,305.667 147.667,304.833 147.5,304C 147.684,302.624 148.351,301.791 149.5,301.5 Z"/></g>
<g><path style="opacity:1" fill="#f9fafa" d="M 149.5,301.5 C 150.5,301.5 151.5,301.5 152.5,301.5C 152.5,303.167 152.5,304.833 152.5,306.5C 151.5,306.5 150.5,306.5 149.5,306.5C 149.5,304.833 149.5,303.167 149.5,301.5 Z"/></g>
<g><path style="opacity:1" fill="#abb1b4" d="M 216.5,300.5 C 217.725,301.152 218.392,302.319 218.5,304C 219.06,307.441 217.727,308.774 214.5,308C 216.278,305.865 216.945,303.365 216.5,300.5 Z"/></g>
<g><path style="opacity:1" fill="#acb1b6" d="M 223.5,300.5 C 228.041,300.331 228.374,300.998 224.5,302.5C 225.5,303.167 226.5,303.833 227.5,304.5C 226.975,305.192 226.308,305.692 225.5,306C 226.624,306.249 227.624,306.749 228.5,307.5C 226.955,308.452 225.288,308.785 223.5,308.5C 223.5,305.833 223.5,303.167 223.5,300.5 Z"/></g>
</svg>
