<?xml version="1.0" encoding="UTF-8"?>
<!DOCTYPE svg PUBLIC "-//W3C//DTD SVG 1.1//EN" "http://www.w3.org/Graphics/SVG/1.1/DTD/svg11.dtd">
<svg xmlns="http://www.w3.org/2000/svg" version="1.1" width="1600px" height="425px" style="shape-rendering:geometricPrecision; text-rendering:geometricPrecision; image-rendering:optimizeQuality; fill-rule:evenodd; clip-rule:evenodd" xmlns:xlink="http://www.w3.org/1999/xlink">
<g><path style="opacity:0.974" fill="#13279f" d="M 158.5,103.5 C 172.208,103.138 185.874,103.638 199.5,105C 233.691,112.405 248.024,133.572 242.5,168.5C 225.833,168.5 209.167,168.5 192.5,168.5C 193.249,160.17 192.082,152.17 189,144.5C 180.434,136.718 171.268,135.884 161.5,142C 155.445,150.166 154.945,158.666 160,167.5C 163.833,170.667 167.667,173.833 171.5,177C 190.948,186.804 209.614,197.804 227.5,210C 241.935,221.707 248.601,236.873 247.5,255.5C 247.728,292.445 229.394,312.945 192.5,317C 175.995,318.368 159.661,317.368 143.5,314C 122.113,307.947 108.946,294.114 104,272.5C 103.5,262.839 103.334,253.172 103.5,243.5C 121.5,243.5 139.5,243.5 157.5,243.5C 157.334,251.84 157.5,260.173 158,268.5C 161.565,276.789 167.898,281.122 177,281.5C 189.943,280.888 196.443,274.055 196.5,261C 196.344,256.864 195.177,253.031 193,249.5C 190.167,246 187,242.833 183.5,240C 169.658,230.909 155.325,222.576 140.5,215C 103.394,193.672 94.5605,163.839 114,125.5C 126.047,112.393 140.88,105.06 158.5,103.5 Z"/></g>
<g><path style="opacity:0.972" fill="#13279f" d="M 1421.5,103.5 C 1440.71,102.97 1458.38,107.803 1474.5,118C 1484.42,126.997 1490.25,138.164 1492,151.5C 1492.5,159.159 1492.67,166.826 1492.5,174.5C 1475.5,174.5 1458.5,174.5 1441.5,174.5C 1442.11,165.984 1441.28,157.651 1439,149.5C 1430.06,139.711 1419.89,138.211 1408.5,145C 1404.63,148.252 1402.47,152.419 1402,157.5C 1401.33,192.5 1401.33,227.5 1402,262.5C 1404.82,272.136 1411.32,277.136 1421.5,277.5C 1433.57,277.256 1440.4,271.256 1442,259.5C 1442.5,248.839 1442.67,238.172 1442.5,227.5C 1435.5,227.5 1428.5,227.5 1421.5,227.5C 1421.5,217.167 1421.5,206.833 1421.5,196.5C 1445.17,196.5 1468.83,196.5 1492.5,196.5C 1492.67,220.169 1492.5,243.836 1492,267.5C 1488.31,289.858 1475.48,304.025 1453.5,310C 1430.33,315.941 1407.33,315.275 1384.5,308C 1361.93,298.394 1350.77,281.228 1351,256.5C 1350.33,225.5 1350.33,194.5 1351,163.5C 1351.58,131.595 1367.42,112.428 1398.5,106C 1406.31,105.123 1413.98,104.289 1421.5,103.5 Z"/></g>
<g><path style="opacity:0.974" fill="#13279f" d="M 805.5,104.5 C 818.542,104.147 831.542,104.647 844.5,106C 878.159,113.207 892.492,134.04 887.5,168.5C 870.833,168.5 854.167,168.5 837.5,168.5C 837.666,162.824 837.499,157.157 837,151.5C 832.58,140.043 824.414,136.209 812.5,140C 803.212,144.757 800.046,152.257 803,162.5C 806.833,169 812,174.167 818.5,178C 835.494,187.162 852.161,196.828 868.5,207C 890.32,224.037 897.82,246.204 891,273.5C 887.425,291.816 876.925,304.316 859.5,311C 852.372,313.559 845.038,315.226 837.5,316C 818.015,318.17 799.015,316.17 780.5,310C 762.726,302.227 752.56,288.727 750,269.5C 749.5,260.84 749.334,252.173 749.5,243.5C 767.5,243.5 785.5,243.5 803.5,243.5C 803.334,251.84 803.5,260.173 804,268.5C 809.837,279.182 818.67,282.682 830.5,279C 836.07,277.095 839.57,273.261 841,267.5C 841.839,262.079 841.506,256.746 840,251.5C 835.833,246 831,241.167 825.5,237C 811.5,229 797.5,221 783.5,213C 769.473,205.309 759.307,194.142 753,179.5C 744.214,135.822 761.714,110.822 805.5,104.5 Z"/></g>
<g><path style="opacity:0.974" fill="#13279f" d="M 315.5,109.5 C 345.407,109.171 375.24,109.505 405,110.5C 417.362,177.143 429.529,243.81 441.5,310.5C 423.097,311.146 404.93,310.479 387,308.5C 378.333,249.167 369.667,189.833 361,130.5C 351.324,190.397 342.157,250.397 333.5,310.5C 315.155,310.833 296.821,310.5 278.5,309.5C 291.049,242.874 303.382,176.208 315.5,109.5 Z"/></g>
<g><path style="opacity:0.973" fill="#13279f" d="M 484.5,109.5 C 511.833,109.5 539.167,109.5 566.5,109.5C 574.664,160.487 582.831,211.487 591,262.5C 599.169,211.487 607.336,160.487 615.5,109.5C 642.833,109.5 670.167,109.5 697.5,109.5C 699.07,176.495 700.404,243.495 701.5,310.5C 684.833,310.5 668.167,310.5 651.5,310.5C 650.976,251.829 650.142,193.162 649,134.5C 638.228,193.191 627.395,251.858 616.5,310.5C 599.095,311.144 581.929,310.478 565,308.5C 554.226,250.853 543.559,193.187 533,135.5C 531.684,193.778 530.85,252.111 530.5,310.5C 513.833,310.5 497.167,310.5 480.5,310.5C 481.5,243.492 482.833,176.492 484.5,109.5 Z"/></g>
<g><path style="opacity:0.981" fill="#13279f" d="M 937.5,109.5 C 954.5,109.5 971.5,109.5 988.5,109.5C 988.333,160.834 988.5,212.168 989,263.5C 991.283,273.281 997.45,278.615 1007.5,279.5C 1016.94,279.04 1023.11,274.374 1026,265.5C 1026.5,213.501 1026.67,161.501 1026.5,109.5C 1043.5,109.5 1060.5,109.5 1077.5,109.5C 1077.17,158.542 1077.5,207.542 1078.5,256.5C 1078.97,288.413 1063.64,307.579 1032.5,314C 1015.84,317.29 999.171,317.29 982.5,314C 956.253,308.756 941.419,292.922 938,266.5C 937.5,214.168 937.333,161.834 937.5,109.5 Z"/></g>
<g><path style="opacity:0.979" fill="#13279f" d="M 1132.5,109.5 C 1157.41,109.172 1182.24,109.506 1207,110.5C 1222,162.167 1237,213.833 1252,265.5C 1251.57,213.499 1250.73,161.499 1249.5,109.5C 1266.17,109.5 1282.83,109.5 1299.5,109.5C 1299.5,175.833 1299.5,242.167 1299.5,308.5C 1275.59,308.828 1251.76,308.494 1228,307.5C 1211.84,254.546 1195.84,201.546 1180,148.5C 1180.05,201.835 1180.55,255.168 1181.5,308.5C 1165.17,308.5 1148.83,308.5 1132.5,308.5C 1132.5,242.167 1132.5,175.833 1132.5,109.5 Z"/></g>
</svg>
