<?xml version="1.0" encoding="UTF-8"?>
<!DOCTYPE svg PUBLIC "-//W3C//DTD SVG 1.1//EN" "http://www.w3.org/Graphics/SVG/1.1/DTD/svg11.dtd">
<svg xmlns="http://www.w3.org/2000/svg" version="1.1" width="1033px" height="532px" style="shape-rendering:geometricPrecision; text-rendering:geometricPrecision; image-rendering:optimizeQuality; fill-rule:evenodd; clip-rule:evenodd" xmlns:xlink="http://www.w3.org/1999/xlink">
<g><path style="opacity:0.971" fill="#000000" d="M 690.5,14.5 C 695.913,12.8965 701.247,13.3965 706.5,16C 805.704,74.0329 905.037,131.866 1004.5,189.5C 1005.5,203.818 1005.83,218.151 1005.5,232.5C 984.473,226.159 963.473,219.659 942.5,213C 900.991,190.745 859.325,168.745 817.5,147C 783.833,119.333 750.167,91.6667 716.5,64C 704.631,56.6344 692.631,49.4677 680.5,42.5C 680.048,35.6071 680.714,28.7738 682.5,22C 691.253,23.3565 699.92,25.0232 708.5,27C 702.645,22.577 696.645,18.4103 690.5,14.5 Z"/></g>
<g><path style="opacity:0.92" fill="#000000" d="M 589.5,57.5 C 590.289,57.7828 590.956,58.2828 591.5,59C 574.5,73.3333 557.5,87.6667 540.5,102C 530.229,108.55 521.063,116.384 513,125.5C 510,130.167 507,134.833 504,139.5C 500.744,141.879 497.244,143.879 493.5,145.5C 492.167,130.5 492.167,115.5 493.5,100.5C 508.127,94.5688 522.794,88.7354 537.5,83C 543.191,79.4866 548.524,75.4866 553.5,71C 565.793,66.9624 577.793,62.4624 589.5,57.5 Z"/></g>
<g><path style="opacity:0.95" fill="#000000" d="M 110.5,60.5 C 132.651,58.1597 152.984,62.9931 171.5,75C 173.397,76.2647 174.73,77.9313 175.5,80C 172.758,89.8943 169.424,99.561 165.5,109C 164.056,109.781 162.723,109.614 161.5,108.5C 150.942,82.8946 131.942,73.0613 104.5,79C 84.8073,84.7223 73.4739,97.7223 70.5,118C 70.467,134.604 77.467,147.271 91.5,156C 111.584,164.806 131.584,173.806 151.5,183C 184.047,203.628 194.214,232.461 182,269.5C 171.388,294.097 152.888,309.263 126.5,315C 93.7387,323.141 63.7387,317.308 36.5,297.5C 36.1667,296.667 35.8333,295.833 35.5,295C 37.9162,284.504 40.2495,274.004 42.5,263.5C 44.1439,263.286 45.6439,263.62 47,264.5C 65.8324,299.556 93.6657,309.39 130.5,294C 152.155,279.368 159.822,259.368 153.5,234C 149.006,223.837 142.006,215.837 132.5,210C 118.245,202.693 103.578,196.36 88.5,191C 47.5831,174.328 33.7497,144.828 47,102.5C 53.8333,86.3333 65.3333,74.8333 81.5,68C 91.0084,64.3739 100.675,61.8739 110.5,60.5 Z"/></g>
<g><path style="opacity:0.948" fill="#000000" d="M 332.5,60.5 C 365.702,58.9226 397.702,64.2559 428.5,76.5C 426.377,86.2064 424.043,95.8731 421.5,105.5C 419.473,105.662 417.473,105.495 415.5,105C 389.975,80.0834 359.641,71.4168 324.5,79C 286.377,89.1226 262.211,113.289 252,151.5C 242.975,187.899 246.642,222.899 263,256.5C 279.288,283.91 303.455,299.077 335.5,302C 366.687,304.384 393.687,295.05 416.5,274C 418.473,273.505 420.473,273.338 422.5,273.5C 422.666,281.507 422.5,289.507 422,297.5C 397.7,312.368 371.2,319.368 342.5,318.5C 305.506,319.561 273.172,308.061 245.5,284C 226.714,264.256 215.547,240.756 212,213.5C 205.978,173.587 214.978,137.587 239,105.5C 264.38,78.5368 295.546,63.5368 332.5,60.5 Z"/></g>
<g><path style="opacity:0.959" fill="#000000" d="M 455.5,65.5 C 466.833,65.5 478.167,65.5 489.5,65.5C 489.5,148.167 489.5,230.833 489.5,313.5C 478.167,313.5 466.833,313.5 455.5,313.5C 455.5,230.833 455.5,148.167 455.5,65.5 Z"/></g>
<g><path style="opacity:0.925" fill="#000000" d="M 717.5,122.5 C 729.238,125.69 740.905,129.19 752.5,133C 762,146.5 771.5,160 781,173.5C 781.667,174.5 781.667,175.5 781,176.5C 768.85,171.338 756.684,166.171 744.5,161C 731.167,151 717.833,141 704.5,131C 708.898,128.143 713.232,125.309 717.5,122.5 Z"/></g>
<g><path style="opacity:0.966" fill="#000000" d="M 448.5,131.5 C 449.832,140.308 450.498,149.475 450.5,159C 450.333,168.167 450.167,177.333 450,186.5C 432.034,202.13 414.368,218.13 397,234.5C 392.151,244.198 387.318,253.864 382.5,263.5C 380.588,265.156 378.588,265.489 376.5,264.5C 375.23,260.282 373.23,256.615 370.5,253.5C 365.589,255.25 360.589,256.583 355.5,257.5C 355.667,241.83 355.5,226.163 355,210.5C 351.863,210.217 348.696,209.884 345.5,209.5C 351.833,201.5 358.167,193.5 364.5,185.5C 370.463,184.504 376.463,184.171 382.5,184.5C 383.865,178.039 385.699,171.706 388,165.5C 395.154,157.379 402.654,149.546 410.5,142C 423.372,138.785 436.039,135.285 448.5,131.5 Z"/></g>
<g><path style="opacity:0.932" fill="#000000" d="M 669.5,144.5 C 671.337,144.639 671.67,145.306 670.5,146.5C 658.027,155.139 645.694,163.973 633.5,173C 636.519,175.358 639.519,177.691 642.5,180C 640.138,185.891 637.638,191.725 635,197.5C 606.5,222 578,246.5 549.5,271C 535.887,280.28 522.554,289.946 509.5,300C 507.945,301.289 506.279,301.956 504.5,302C 526,277.833 547.5,253.667 569,229.5C 572.667,223.833 576.333,218.167 580,212.5C 580.333,207.167 580.667,201.833 581,196.5C 599.167,181 617.333,165.5 635.5,150C 647.024,148.468 658.357,146.634 669.5,144.5 Z"/></g>
<g><path style="opacity:0.982" fill="#000000" d="M 698.5,144.5 C 709.646,150.908 720.98,157.075 732.5,163C 743.545,172.381 754.879,181.381 766.5,190C 770.833,191.667 775.167,193.333 779.5,195C 784.167,200 788.833,205 793.5,210C 799.615,212.224 805.615,214.724 811.5,217.5C 814.155,220.794 815.655,224.461 816,228.5C 800.167,222.984 785.5,215.318 772,205.5C 777.256,213.454 783.423,220.954 790.5,228C 798.5,232 806.5,236 814.5,240C 827.53,240.721 840.53,241.721 853.5,243C 872.928,248.44 892.262,253.273 911.5,257.5C 906.013,252.924 900.347,248.591 894.5,244.5C 893.112,240.819 891.445,237.319 889.5,234C 883.658,230.246 877.991,226.246 872.5,222C 863.239,218.802 853.906,215.802 844.5,213C 841.317,209.985 838.317,206.818 835.5,203.5C 847.88,203.003 860.214,203.837 872.5,206C 878.752,208.862 885.085,211.528 891.5,214C 909.833,217.667 928.167,221.333 946.5,225C 962.836,230.445 979.003,236.278 995,242.5C 998.12,241.427 1001.29,240.427 1004.5,239.5C 1006.29,290.481 1006.95,341.481 1006.5,392.5C 935.162,392.898 863.828,392.898 792.5,392.5C 799.167,388.5 805.833,384.5 812.5,380.5C 805.795,379.496 799.129,378.329 792.5,377C 788.167,374 783.833,371 779.5,368C 778.032,361.931 776.865,355.764 776,349.5C 773.65,347.317 771.483,344.984 769.5,342.5C 762.167,346.833 754.833,351.167 747.5,355.5C 745.028,353.749 742.361,352.915 739.5,353C 746.624,363.414 753.624,373.914 760.5,384.5C 755.844,387.495 750.844,389.995 745.5,392C 710.495,392.833 675.495,392.667 640.5,391.5C 647.35,384.484 654.017,377.317 660.5,370C 685.996,364.037 711.33,357.704 736.5,351C 732.326,348.412 727.993,346.079 723.5,344C 716.656,335.989 709.322,328.489 701.5,321.5C 696.572,322.606 691.739,323.94 687,325.5C 676.207,317.043 665.707,308.209 655.5,299C 657.122,295.973 658.455,292.806 659.5,289.5C 657.243,286.428 655.243,283.261 653.5,280C 656.077,270.19 658.577,260.357 661,250.5C 666.557,245.309 672.39,240.476 678.5,236C 674.376,228.37 674.543,220.87 679,213.5C 681.007,216.336 683.174,219.003 685.5,221.5C 689.578,216.343 693.412,211.01 697,205.5C 699.265,197.66 696.431,193.66 688.5,193.5C 691.583,177.084 694.916,160.75 698.5,144.5 Z"/></g>
<g><path style="opacity:0.941" fill="#000000" d="M 661.5,204.5 C 662.239,204.369 662.906,204.536 663.5,205C 656,212.5 648.5,220 641,227.5C 643.019,249.956 645.685,272.289 649,294.5C 642.198,300.301 635.698,306.468 629.5,313C 619.83,313.622 610.164,314.289 600.5,315C 583.02,330.569 565.354,345.903 547.5,361C 532.916,367.528 518.249,373.861 503.5,380C 501.954,384.019 500.954,388.185 500.5,392.5C 487.829,392.667 475.162,392.5 462.5,392C 468.833,387.667 475.167,383.333 481.5,379C 486.833,377.667 492.167,376.333 497.5,375C 527.76,348.618 557.927,322.118 588,295.5C 589.092,292.956 589.759,290.289 590,287.5C 600.333,277.167 610.667,266.833 621,256.5C 624,245.167 627,233.833 630,222.5C 640.668,216.636 651.168,210.636 661.5,204.5 Z"/></g>
<g><path style="opacity:0.935" fill="#000000" d="M 328.5,221.5 C 330.199,221.34 331.866,221.506 333.5,222C 316.894,239.932 301.061,258.432 286,277.5C 275.275,268.098 266.775,256.931 260.5,244C 264.304,240.19 268.637,237.19 273.5,235C 292.07,230.94 310.404,226.44 328.5,221.5 Z"/></g>
<g><path style="opacity:0.969" fill="#000000" d="M 225.5,270.5 C 226.675,270.281 227.675,270.614 228.5,271.5C 238.88,285.523 251.547,297.023 266.5,306C 259.214,314.742 252.047,323.575 245,332.5C 231.463,345.039 217.63,357.206 203.5,369C 190.231,370.71 176.897,372.044 163.5,373C 156.167,379.667 148.833,386.333 141.5,393C 101.163,393.833 60.8292,393.667 20.5,392.5C 30.3775,378.578 40.3775,364.745 50.5,351C 66.5336,350.271 82.5336,349.271 98.5,348C 118.833,341.667 139.167,335.333 159.5,329C 162.768,321.63 166.435,314.463 170.5,307.5C 189.147,295.5 207.48,283.166 225.5,270.5 Z"/></g>
<g><path style="opacity:0.747" fill="#000000" d="M 328.5,272.5 C 330.028,272.517 330.528,273.184 330,274.5C 323.531,279.968 317.364,285.801 311.5,292C 307.798,291.824 304.465,290.49 301.5,288C 310.563,282.806 319.563,277.64 328.5,272.5 Z"/></g>
<g><path style="opacity:0.91" fill="#000000" d="M 277.5,311.5 C 289.152,315.328 300.819,318.994 312.5,322.5C 310.021,331.081 307.855,339.748 306,348.5C 304.647,349.704 302.981,350.371 301,350.5C 299.5,350.167 298,349.833 296.5,349.5C 292.974,345.141 289.641,340.641 286.5,336C 282.13,335.928 278.297,337.428 275,340.5C 274.667,344.167 274.333,347.833 274,351.5C 269.299,355.866 264.966,360.533 261,365.5C 259.684,368.688 259.184,372.022 259.5,375.5C 254.763,375.881 250.096,376.714 245.5,378C 237.99,382.849 230.49,387.682 223,392.5C 221.699,391.902 220.865,390.902 220.5,389.5C 226.863,382.97 233.697,376.97 241,371.5C 242.743,361.694 244.91,352.028 247.5,342.5C 254.424,340.728 261.257,338.728 268,336.5C 272.057,328.494 275.224,320.16 277.5,311.5 Z"/></g>
<g><path style="opacity:0.891" fill="#000000" d="M 490.5,321.5 C 491.239,321.369 491.906,321.536 492.5,322C 482.98,332.686 473.646,343.519 464.5,354.5C 470.923,353.311 477.423,351.311 484,348.5C 484.617,349.449 484.451,350.282 483.5,351C 461.665,364.417 439.998,378.083 418.5,392C 409.482,392.832 400.482,392.665 391.5,391.5C 424.742,368.39 457.742,345.057 490.5,321.5 Z"/></g>
<g><path style="opacity:0.78" fill="#000000" d="M 680.5,322.5 C 681.043,322.56 681.376,322.893 681.5,323.5C 655.874,346.324 630.207,369.157 604.5,392C 599.5,392.667 594.5,392.667 589.5,392C 620.018,368.97 650.351,345.803 680.5,322.5 Z"/></g>
<g><path style="opacity:0.924" fill="#000000" d="M 363.5,361.5 C 364.675,361.281 365.675,361.614 366.5,362.5C 367.909,365.727 368.909,369.06 369.5,372.5C 387.426,369.148 405.26,365.482 423,361.5C 423.507,362.996 423.007,364.163 421.5,365C 407.833,374 394.167,383 380.5,392C 360.646,392.196 340.813,392.696 321,393.5C 320.167,393.167 319.333,392.833 318.5,392.5C 333.355,381.91 348.355,371.577 363.5,361.5 Z"/></g>
<g><path style="opacity:0.879" fill="#000000" d="M 702.5,404.5 C 706.167,404.5 709.833,404.5 713.5,404.5C 713.167,419.182 713.501,433.848 714.5,448.5C 724.199,438.93 735.199,437.096 747.5,443C 752.815,446.795 755.648,451.962 756,458.5C 756.667,473.833 756.667,489.167 756,504.5C 752.333,505.833 748.667,505.833 745,504.5C 744.94,488.114 744.273,471.78 743,455.5C 738.112,447.605 731.279,445.439 722.5,449C 718.942,450.892 716.442,453.725 715,457.5C 713.729,473.113 713.063,488.78 713,504.5C 709.333,505.833 705.667,505.833 702,504.5C 701.174,471.095 701.341,437.762 702.5,404.5 Z"/></g>
<g><path style="opacity:0.881" fill="#000000" d="M 908.5,404.5 C 912.5,404.5 916.5,404.5 920.5,404.5C 920.667,437.835 920.5,471.168 920,504.5C 916.591,505.622 913.091,505.789 909.5,505C 908.875,502.2 908.208,499.366 907.5,496.5C 897.419,507.136 885.753,509.302 872.5,503C 865.539,498.357 861.372,491.857 860,483.5C 857.858,471.657 859.858,460.657 866,450.5C 879.251,436.748 893.084,436.081 907.5,448.5C 908.499,433.848 908.833,419.182 908.5,404.5 Z M 885.5,446.5 C 898.582,444.746 906.082,450.413 908,463.5C 909.716,474.097 908.049,484.097 903,493.5C 894.626,502.382 885.96,502.715 877,494.5C 872.229,483.213 871.229,471.546 874,459.5C 876.022,453.383 879.856,449.05 885.5,446.5 Z"/></g>
<g><path style="opacity:0.842" fill="#000000" d="M 486.5,410.5 C 496.832,410.675 499.499,415.175 494.5,424C 485.828,426.661 481.995,423.494 483,414.5C 484.376,413.295 485.542,411.962 486.5,410.5 Z"/></g>
<g><path style="opacity:0.876" fill="#000000" d="M 613.5,423.5 C 614.5,423.5 615.5,423.5 616.5,423.5C 616.5,429.5 616.5,435.5 616.5,441.5C 621.167,441.5 625.833,441.5 630.5,441.5C 630.5,443.833 630.5,446.167 630.5,448.5C 625.833,448.5 621.167,448.5 616.5,448.5C 616.333,463.17 616.5,477.837 617,492.5C 619.416,500.405 624.583,502.738 632.5,499.5C 632.714,501.144 632.38,502.644 631.5,504C 624.956,506.807 618.29,507.14 611.5,505C 607.675,502.512 605.508,499.012 605,494.5C 604.5,479.17 604.333,463.837 604.5,448.5C 601.833,448.5 599.167,448.5 596.5,448.5C 596.5,446.167 596.5,443.833 596.5,441.5C 599.167,441.5 601.833,441.5 604.5,441.5C 604.334,436.821 604.501,432.155 605,427.5C 607.969,426.263 610.803,424.93 613.5,423.5 Z"/></g>
<g><path style="opacity:0.853" fill="#000000" d="M 387.5,439.5 C 394.436,438.86 400.936,440.194 407,443.5C 406.849,447.284 405.515,450.618 403,453.5C 399.816,449.304 395.816,446.304 391,444.5C 379.891,446.82 377.058,452.986 382.5,463C 389.799,466.326 397.132,469.659 404.5,473C 411.857,480.586 412.357,488.753 406,497.5C 395.982,506.847 384.482,509.013 371.5,504C 369.777,503.477 368.444,502.477 367.5,501C 368.196,497.875 369.196,494.875 370.5,492C 373.945,493.407 376.945,495.741 379.5,499C 387.657,503.059 394.157,501.226 399,493.5C 399.929,489.756 399.429,486.256 397.5,483C 390.369,479.287 383.036,475.953 375.5,473C 368.431,465.247 367.597,456.747 373,447.5C 377.119,443.361 381.952,440.694 387.5,439.5 Z"/></g>
<g><path style="opacity:0.857" fill="#000000" d="M 446.5,439.5 C 456.496,438.719 465.829,440.719 474.5,445.5C 473.668,448.161 472.834,450.828 472,453.5C 471.439,454.022 470.772,454.355 470,454.5C 463.258,446.142 454.758,443.642 444.5,447C 437.773,450.065 433.606,455.231 432,462.5C 428.478,475.912 431.645,487.412 441.5,497C 453.05,502.927 463.217,501.094 472,491.5C 474.1,494.794 473.934,497.96 471.5,501C 456.688,508.878 442.354,508.211 428.5,499C 416.18,485.162 414.347,469.995 423,453.5C 429.034,445.598 436.867,440.931 446.5,439.5 Z"/></g>
<g><path style="opacity:0.855" fill="#000000" d="M 658.5,439.5 C 672.794,437.715 681.628,443.715 685,457.5C 685.333,471.167 685.667,484.833 686,498.5C 688,499.833 690,499.833 692,498.5C 692.798,500.259 692.631,501.926 691.5,503.5C 686.212,506.1 681.045,505.766 676,502.5C 675.138,500.913 674.471,499.246 674,497.5C 665.289,506.515 655.123,508.682 643.5,504C 634.867,497.085 633.367,488.918 639,479.5C 648.773,472.907 659.606,469.074 671.5,468C 674.089,462.878 673.922,457.712 671,452.5C 665.993,446.514 659.826,445.014 652.5,448C 649.305,449.695 646.972,452.195 645.5,455.5C 644.675,456.386 643.675,456.719 642.5,456.5C 641.447,453.148 641.447,449.815 642.5,446.5C 647.45,443.019 652.783,440.685 658.5,439.5 Z M 670.5,472.5 C 671.496,472.414 672.329,472.748 673,473.5C 673.667,479.5 673.667,485.5 673,491.5C 667.901,499.088 661.068,501.255 652.5,498C 647.006,492.873 646.172,487.039 650,480.5C 656.27,476.137 663.103,473.47 670.5,472.5 Z"/></g>
<g><path style="opacity:0.846" fill="#000000" d="M 818.5,439.5 C 840.906,439.575 851.906,450.908 851.5,473.5C 836.167,473.5 820.833,473.5 805.5,473.5C 806.884,497.056 818.551,504.556 840.5,496C 842.96,494.542 845.127,492.709 847,490.5C 847.821,493.554 847.655,496.554 846.5,499.5C 832.256,508.613 817.923,508.78 803.5,500C 793.349,489.866 789.849,477.7 793,463.5C 796.574,450.088 805.074,442.088 818.5,439.5 Z M 822.5,444.5 C 834.179,446.483 839.679,453.483 839,465.5C 827.915,466.487 816.748,466.821 805.5,466.5C 806.079,454.952 811.746,447.619 822.5,444.5 Z"/></g>
<g><path style="opacity:0.874" fill="#000000" d="M 44.5,441.5 C 48.7675,441.203 52.9341,441.536 57,442.5C 62.2075,457.957 67.7075,473.29 73.5,488.5C 79.5976,473.21 84.9309,457.543 89.5,441.5C 93.1064,441.211 96.6064,441.544 100,442.5C 104.949,458.017 110.283,473.35 116,488.5C 122.118,473.317 127.952,457.984 133.5,442.5C 136.833,441.167 140.167,441.167 143.5,442.5C 134.553,463.557 125.22,484.39 115.5,505C 112.901,505.769 110.401,505.602 108,504.5C 103.126,489.378 97.9597,474.378 92.5,459.5C 86.408,474.024 80.5747,488.691 75,503.5C 72.447,505.729 69.6136,506.062 66.5,504.5C 58.7678,483.636 51.4344,462.636 44.5,441.5 Z"/></g>
<g><path style="opacity:0.874" fill="#000000" d="M 149.5,441.5 C 153.5,441.5 157.5,441.5 161.5,441.5C 166.89,457.502 172.39,473.502 178,489.5C 183.785,473.98 189.285,458.313 194.5,442.5C 197.833,441.167 201.167,441.167 204.5,442.5C 209.84,458.187 215.173,473.854 220.5,489.5C 226.625,473.959 232.459,458.292 238,442.5C 241.409,441.378 244.909,441.211 248.5,442C 239.337,462.816 230.171,483.65 221,504.5C 218.599,505.602 216.099,505.769 213.5,505C 212.874,504.25 212.374,503.416 212,502.5C 207.384,487.983 202.384,473.65 197,459.5C 190.813,474.387 184.813,489.387 179,504.5C 176.599,505.602 174.099,505.769 171.5,505C 163.47,484.077 156.137,462.91 149.5,441.5 Z"/></g>
<g><path style="opacity:0.873" fill="#000000" d="M 253.5,441.5 C 257.767,441.203 261.934,441.536 266,442.5C 271.48,457.944 277.147,473.277 283,488.5C 288.717,473.35 294.051,458.017 299,442.5C 302.394,441.544 305.894,441.211 309.5,441.5C 314.226,456.845 319.059,472.179 324,487.5C 324.414,487.957 324.914,488.291 325.5,488.5C 331.765,473.037 337.432,457.37 342.5,441.5C 345.833,441.5 349.167,441.5 352.5,441.5C 344.135,462.086 335.468,482.586 326.5,503C 325.391,504.861 323.725,505.695 321.5,505.5C 319.275,505.695 317.609,504.861 316.5,503C 311.868,488.105 307.035,473.271 302,458.5C 295.784,473.141 289.951,487.975 284.5,503C 281.949,505.648 278.949,506.148 275.5,504.5C 268.162,483.486 260.829,462.486 253.5,441.5 Z"/></g>
<g><path style="opacity:0.883" fill="#000000" d="M 483.5,441.5 C 487.5,441.5 491.5,441.5 495.5,441.5C 495.5,462.833 495.5,484.167 495.5,505.5C 491.563,505.793 487.73,505.46 484,504.5C 483.5,483.503 483.333,462.503 483.5,441.5 Z"/></g>
<g><path style="opacity:0.888" fill="#000000" d="M 532.5,441.5 C 536.5,441.5 540.5,441.5 544.5,441.5C 544.06,457.89 544.56,474.224 546,490.5C 548.655,496.328 553.155,498.995 559.5,498.5C 566.998,499.003 571.832,495.669 574,488.5C 575.42,472.883 575.92,457.216 575.5,441.5C 579.5,441.5 583.5,441.5 587.5,441.5C 587.667,462.503 587.5,483.503 587,504.5C 583.591,505.622 580.091,505.789 576.5,505C 575.88,502.527 575.214,500.027 574.5,497.5C 565.371,506.851 554.704,509.017 542.5,504C 538.212,501.708 535.378,498.208 534,493.5C 532.556,476.223 532.056,458.889 532.5,441.5 Z"/></g>
<g><path style="opacity:0.884" fill="#000000" d="M 930.5,441.5 C 934.5,441.5 938.5,441.5 942.5,441.5C 942.062,457.557 942.562,473.557 944,489.5C 946.535,495.77 951.202,498.77 958,498.5C 964.798,498.77 969.465,495.77 972,489.5C 973.438,473.557 973.938,457.557 973.5,441.5C 977.5,441.5 981.5,441.5 985.5,441.5C 985.667,462.503 985.5,483.503 985,504.5C 981.591,505.622 978.091,505.789 974.5,505C 973.718,502.26 973.218,499.426 973,496.5C 968.126,503.27 961.46,506.604 953,506.5C 942.468,506.946 935.468,502.28 932,492.5C 930.573,475.548 930.073,458.548 930.5,441.5 Z"/></g>
<g><path style="opacity:0.853" fill="#000000" d="M 347.5,489.5 C 354.144,488.649 358.144,491.482 359.5,498C 358.678,502.822 355.844,505.656 351,506.5C 341.189,502.609 340.022,496.943 347.5,489.5 Z"/></g>
<g><path style="opacity:0.853" fill="#000000" d="M 510.5,489.5 C 517.144,488.649 521.144,491.482 522.5,498C 521.678,502.822 518.844,505.656 514,506.5C 504.189,502.609 503.022,496.943 510.5,489.5 Z"/></g>
<g><path style="opacity:0.853" fill="#000000" d="M 771.5,489.5 C 778.144,488.649 782.144,491.482 783.5,498C 782.678,502.822 779.844,505.656 775,506.5C 765.189,502.609 764.022,496.943 771.5,489.5 Z"/></g>
</svg>
