<?xml version="1.0" encoding="UTF-8"?>
<!DOCTYPE svg PUBLIC "-//W3C//DTD SVG 1.1//EN" "http://www.w3.org/Graphics/SVG/1.1/DTD/svg11.dtd">
<svg xmlns="http://www.w3.org/2000/svg" version="1.1" width="1181px" height="308px" style="shape-rendering:geometricPrecision; text-rendering:geometricPrecision; image-rendering:optimizeQuality; fill-rule:evenodd; clip-rule:evenodd" xmlns:xlink="http://www.w3.org/1999/xlink">
<g><path style="opacity:1" fill="#241e1f" d="M 707.5,5.5 C 728.351,4.63026 749.018,6.13026 769.5,10C 824.839,24.1696 855.172,59.6696 860.5,116.5C 830.5,116.5 800.5,116.5 770.5,116.5C 764.078,90.4171 747.412,76.7504 720.5,75.5C 691.807,77.0245 675.307,92.0245 671,120.5C 667.712,142.163 667.712,163.83 671,185.5C 674.935,214.771 691.601,230.104 721,231.5C 747.722,229.929 764.222,216.262 770.5,190.5C 800.835,190.333 831.168,190.5 861.5,191C 854.383,249.111 822.383,284.778 765.5,298C 727.305,305.059 689.972,302.059 653.5,289C 617.863,272.018 594.363,244.518 583,206.5C 574.029,169.738 574.362,133.071 584,96.5C 597.859,54.6406 625.693,26.8073 667.5,13C 680.773,9.37694 694.106,6.87694 707.5,5.5 Z"/></g>
<g><path style="opacity:1" fill="#241e1f" d="M 1021.5,5.5 C 1042.35,4.63026 1063.02,6.13026 1083.5,10C 1138.84,24.1696 1169.17,59.6696 1174.5,116.5C 1144.49,116.833 1114.49,116.5 1084.5,115.5C 1073.97,83.0633 1051.97,70.5633 1018.5,78C 1000.2,83.9665 989.371,96.4665 986,115.5C 981.709,139.099 981.376,162.765 985,186.5C 989.307,214.976 1005.81,229.976 1034.5,231.5C 1061.41,230.25 1078.08,216.583 1084.5,190.5C 1114.5,190.5 1144.5,190.5 1174.5,190.5C 1170.05,243.939 1142.39,278.772 1091.5,295C 1051.44,304.759 1011.77,303.425 972.5,291C 935.225,275.723 910.391,248.89 898,210.5C 887.14,169.176 888.14,128.176 901,87.5C 916.327,50.1712 943.16,25.3379 981.5,13C 994.773,9.37694 1008.11,6.87694 1021.5,5.5 Z"/></g>
<g><path style="opacity:1" fill="#201d1f" d="M 5.5,9.5 C 95.5,9.5 185.5,9.5 275.5,9.5C 275.5,34.5 275.5,59.5 275.5,84.5C 245.833,84.5 216.167,84.5 186.5,84.5C 186.5,155.5 186.5,226.5 186.5,297.5C 155.833,297.5 125.167,297.5 94.5,297.5C 94.5,226.5 94.5,155.5 94.5,84.5C 64.8333,84.5 35.1667,84.5 5.5,84.5C 5.5,59.5 5.5,34.5 5.5,9.5 Z"/></g>
<g><path style="opacity:1" fill="#211f22" d="M 353.5,9.5 C 395.172,9.16675 436.839,9.50009 478.5,10.5C 510.109,105.994 541.109,201.66 571.5,297.5C 541.498,297.667 511.498,297.5 481.5,297C 459.693,281.36 438.026,265.527 416.5,249.5C 394.36,265.14 372.36,280.973 350.5,297C 320.502,297.5 290.502,297.667 260.5,297.5C 291.102,201.361 322.102,105.361 353.5,9.5 Z"/></g>
<g><path style="opacity:1" fill="#fefefe" d="M 704.5,10.5 C 723.564,10.0016 742.564,10.8349 761.5,13C 811.024,22.6362 841.857,51.8029 854,100.5C 854.42,104.191 854.92,107.858 855.5,111.5C 828.492,111.833 801.492,111.5 774.5,110.5C 762.794,80.4679 740.794,67.6345 708.5,72C 685.139,77.3615 671.306,91.8615 667,115.5C 664.993,127.419 663.827,139.419 663.5,151.5C 636.167,151.5 608.833,151.5 581.5,151.5C 579.047,103.927 596.047,65.0933 632.5,35C 654.512,20.7188 678.512,12.5522 704.5,10.5 Z"/></g>
<g><path style="opacity:1" fill="#fefefe" d="M 922.5,151.5 C 913.5,151.5 904.5,151.5 895.5,151.5C 895.5,148.167 895.5,144.833 895.5,141.5C 896.256,93.4763 916.256,55.9763 955.5,29C 981.569,15.052 1009.4,8.88535 1039,10.5C 1081.25,8.24104 1116.92,22.241 1146,52.5C 1159.02,70.0574 1166.85,89.7241 1169.5,111.5C 1142.17,111.5 1114.83,111.5 1087.5,111.5C 1081.56,88.7287 1066.89,75.562 1043.5,72C 1007.29,68.518 986.122,84.6847 980,120.5C 978.542,130.788 977.709,141.121 977.5,151.5C 959.167,151.5 940.833,151.5 922.5,151.5 Z"/></g>
<g><path style="opacity:1" fill="#182236" d="M 9.5,14.5 C 96.9984,13.5006 184.665,13.1673 272.5,13.5C 272.831,36.0062 272.497,58.3396 271.5,80.5C 271.5,58.5 271.5,36.5 271.5,14.5C 184.167,14.5 96.8333,14.5 9.5,14.5 Z"/></g>
<g><path style="opacity:1" fill="#002767" d="M 9.5,14.5 C 96.8333,14.5 184.167,14.5 271.5,14.5C 271.5,36.5 271.5,58.5 271.5,80.5C 241.833,80.5 212.167,80.5 182.5,80.5C 182.5,151.5 182.5,222.5 182.5,293.5C 154.5,293.5 126.5,293.5 98.5,293.5C 98.5,222.5 98.5,151.5 98.5,80.5C 68.8333,80.5 39.1667,80.5 9.5,80.5C 9.5,58.5 9.5,36.5 9.5,14.5 Z"/></g>
<g><path style="opacity:1" fill="#002767" d="M 523.5,162.5 C 496.426,162.824 469.426,162.491 442.5,161.5C 434.173,134.019 425.34,106.686 416,79.5C 407.097,107.374 397.931,135.041 388.5,162.5C 361.812,163.158 335.479,162.491 309.5,160.5C 325.369,111.561 341.035,62.5609 356.5,13.5C 396.167,13.5 435.833,13.5 475.5,13.5C 491.102,63.3053 507.102,112.972 523.5,162.5 Z"/></g>
<g><path style="opacity:1" fill="#fdfdfd" d="M 440.5,166.5 C 466.5,167.167 492.5,167.833 518.5,168.5C 497.878,183.282 477.378,198.282 457,213.5C 463.66,238.154 471.16,262.654 479.5,287C 479.167,287.5 478.833,288 478.5,288.5C 457.833,273.5 437.167,258.5 416.5,243.5C 395.245,258.711 374.078,274.044 353,289.5C 359.493,265.347 366.826,241.347 375,217.5C 375.667,216.167 375.667,214.833 375,213.5C 354.01,198.268 333.177,182.934 312.5,167.5C 339.521,168.158 366.188,167.491 392.5,165.5C 399.827,141.02 407.66,116.686 416,92.5C 424.27,117.142 432.436,141.809 440.5,166.5 Z"/></g>
<g><path style="opacity:1" fill="#5b5859" d="M 895.5,141.5 C 895.5,144.833 895.5,148.167 895.5,151.5C 904.5,151.5 913.5,151.5 922.5,151.5C 913.348,152.494 904.015,152.827 894.5,152.5C 894.185,148.629 894.518,144.962 895.5,141.5 Z"/></g>
<g><path style="opacity:1" fill="#be0a2f" d="M 581.5,155.5 C 609.167,155.5 636.833,155.5 664.5,155.5C 663.785,174.542 666.951,192.875 674,210.5C 684.739,227.707 700.405,236.041 721,235.5C 748.892,235.151 766.725,221.651 774.5,195C 801.498,194.5 828.498,194.333 855.5,194.5C 849.952,242.549 824.285,274.382 778.5,290C 736.16,301.524 694.493,299.524 653.5,284C 630.924,273.092 613.091,256.925 600,235.5C 586.592,210.533 580.425,183.866 581.5,155.5 Z"/></g>
<g><path style="opacity:1" fill="#be0a2f" d="M 894.5,155.5 C 922.5,155.5 950.5,155.5 978.5,155.5C 977.479,175.376 980.979,194.376 989,212.5C 999.532,227.769 1014.2,235.435 1033,235.5C 1061.42,235.394 1079.92,221.894 1088.5,195C 1115.5,194.5 1142.5,194.333 1169.5,194.5C 1162.94,247.561 1133.61,280.395 1081.5,293C 1041.48,301.229 1002.48,297.896 964.5,283C 925.873,261.348 903.373,228.515 897,184.5C 895.923,174.849 895.09,165.183 894.5,155.5 Z"/></g>
<g><path style="opacity:1" fill="#122653" d="M 309.5,160.5 C 335.479,162.491 361.812,163.158 388.5,162.5C 362.005,163.498 335.339,163.831 308.5,163.5C 308.263,162.209 308.596,161.209 309.5,160.5 Z"/></g>
<g><path style="opacity:1" fill="#132552" d="M 442.5,161.5 C 469.426,162.491 496.426,162.824 523.5,162.5C 510.171,163.167 496.671,163.5 483,163.5C 469.15,163.499 455.65,162.833 442.5,161.5 Z"/></g>
<g><path style="opacity:0.749" fill="#888787" d="M 392.5,165.5 C 366.188,167.491 339.521,168.158 312.5,167.5C 339.069,166.825 365.736,166.158 392.5,165.5 Z"/></g>
<g><path style="opacity:0.749" fill="#878686" d="M 440.5,166.5 C 466.842,166.167 493.175,166.5 519.5,167.5C 519.376,168.107 519.043,168.44 518.5,168.5C 492.5,167.833 466.5,167.167 440.5,166.5 Z"/></g>
<g><path style="opacity:1" fill="#002767" d="M 306.5,169.5 C 328.41,184.73 350.076,200.396 371.5,216.5C 363.167,241.833 354.833,267.167 346.5,292.5C 319.842,293.5 293.175,293.833 266.5,293.5C 279.637,252.09 292.97,210.756 306.5,169.5 Z"/></g>
<g><path style="opacity:1" fill="#002767" d="M 523.5,169.5 C 524.496,169.414 525.329,169.748 526,170.5C 539.274,211.488 552.441,252.488 565.5,293.5C 538.44,294.153 511.607,293.486 485,291.5C 476.932,266.463 468.766,241.463 460.5,216.5C 481.351,200.581 502.351,184.914 523.5,169.5 Z"/></g>
</svg>
