<?xml version="1.0" encoding="UTF-8"?>
<!DOCTYPE svg PUBLIC "-//W3C//DTD SVG 1.1//EN" "http://www.w3.org/Graphics/SVG/1.1/DTD/svg11.dtd">
<svg xmlns="http://www.w3.org/2000/svg" version="1.1" width="500px" height="344px" style="shape-rendering:geometricPrecision; text-rendering:geometricPrecision; image-rendering:optimizeQuality; fill-rule:evenodd; clip-rule:evenodd" xmlns:xlink="http://www.w3.org/1999/xlink">
<g><path style="opacity:0.99" fill="#c4001d" d="M 198.5,-0.5 C 229.167,-0.5 259.833,-0.5 290.5,-0.5C 290.5,18.5 290.5,37.5 290.5,56.5C 284.5,56.5 278.5,56.5 272.5,56.5C 272.5,79.1667 272.5,101.833 272.5,124.5C 289.5,124.5 306.5,124.5 323.5,124.5C 323.5,101.833 323.5,79.1667 323.5,56.5C 317.5,56.5 311.5,56.5 305.5,56.5C 305.5,37.5 305.5,18.5 305.5,-0.5C 336.5,-0.5 367.5,-0.5 398.5,-0.5C 398.5,18.5 398.5,37.5 398.5,56.5C 392.5,56.5 386.5,56.5 380.5,56.5C 380.667,86.5019 380.5,116.502 380,146.5C 367.862,157.637 356.029,169.137 344.5,181C 313.833,181.667 283.167,181.667 252.5,181C 240.362,169.863 228.529,158.363 217,146.5C 216.5,116.502 216.333,86.5019 216.5,56.5C 210.5,56.5 204.5,56.5 198.5,56.5C 198.5,37.5 198.5,18.5 198.5,-0.5 Z"/></g>
<g><path style="opacity:0.825" fill="#000000" d="M 91.5,146.5 C 100.507,147.801 109.507,147.801 118.5,146.5C 118.808,148.924 118.474,151.257 117.5,153.5C 116.713,152.758 116.047,151.925 115.5,151C 112.854,150.503 110.187,150.336 107.5,150.5C 107.334,159.506 107.5,168.506 108,177.5C 109.205,178.071 110.372,178.738 111.5,179.5C 107.5,180.833 103.5,180.833 99.5,179.5C 100.727,178.41 101.56,177.076 102,175.5C 102.5,167.173 102.666,158.84 102.5,150.5C 99.4816,150.335 96.4816,150.502 93.5,151C 92.9535,151.925 92.2868,152.758 91.5,153.5C 90.2857,151.141 90.2857,148.808 91.5,146.5 Z"/></g>
<g><path style="opacity:0.841" fill="#000000" d="M 126.5,146.5 C 130.139,147.482 133.639,147.815 137,147.5C 137.27,148.932 136.604,149.932 135,150.5C 134.502,153.817 134.335,157.15 134.5,160.5C 140.167,160.5 145.833,160.5 151.5,160.5C 151.5,156.833 151.5,153.167 151.5,149.5C 150.5,149.5 149.5,149.5 148.5,149.5C 148.281,148.325 148.614,147.325 149.5,146.5C 152.366,147.795 155.199,147.795 158,146.5C 159.985,148.235 159.651,149.568 157,150.5C 156.333,159.167 156.333,167.833 157,176.5C 157.9,177.77 159.066,178.77 160.5,179.5C 156.5,180.833 152.5,180.833 148.5,179.5C 149.325,178.614 150.325,178.281 151.5,178.5C 151.5,173.5 151.5,168.5 151.5,163.5C 145.833,163.5 140.167,163.5 134.5,163.5C 134.334,167.846 134.501,172.179 135,176.5C 135.9,177.77 137.066,178.77 138.5,179.5C 134.5,180.833 130.5,180.833 126.5,179.5C 127.242,178.713 128.075,178.047 129,177.5C 129.5,168.173 129.666,158.839 129.5,149.5C 126.506,149.854 125.506,148.854 126.5,146.5 Z"/></g>
<g><path style="opacity:0.76" fill="#000000" d="M 171.5,146.5 C 177.456,147.744 183.456,147.744 189.5,146.5C 189.5,148.833 189.5,151.167 189.5,153.5C 188.5,153.5 187.5,153.5 186.5,153.5C 186.5,152.5 186.5,151.5 186.5,150.5C 184.167,150.5 181.833,150.5 179.5,150.5C 179.5,154.167 179.5,157.833 179.5,161.5C 182.602,161.846 185.435,161.179 188,159.5C 188.818,162.227 188.652,164.894 187.5,167.5C 185.575,164.828 182.908,163.828 179.5,164.5C 179.5,168.833 179.5,173.167 179.5,177.5C 183.849,178.423 187.183,177.09 189.5,173.5C 190.769,175.695 190.769,177.861 189.5,180C 183.141,180.831 176.807,180.664 170.5,179.5C 171.325,178.614 172.325,178.281 173.5,178.5C 173.5,168.833 173.5,159.167 173.5,149.5C 170.752,149.598 170.086,148.598 171.5,146.5 Z"/></g>
<g><path style="opacity:0.649" fill="#000000" d="M 366.5,167.5 C 377.818,166.99 380.485,171.49 374.5,181C 368.02,183.27 364.353,181.103 363.5,174.5C 363.695,171.782 364.695,169.449 366.5,167.5 Z M 373.5,170.5 C 375.787,172.66 375.954,174.994 374,177.5C 373.503,175.19 373.337,172.857 373.5,170.5 Z M 366.5,171.5 C 367.622,173.288 367.789,175.288 367,177.5C 365.204,175.598 365.037,173.598 366.5,171.5 Z M 369.5,175.5 C 374.9,178.827 374.567,179.993 368.5,179C 369.337,177.989 369.67,176.822 369.5,175.5 Z"/></g>
<g><path style="opacity:0.839" fill="#000000" d="M 68.5,208.5 C 70.7157,209.203 72.549,210.536 74,212.5C 84.965,225.133 96.2984,237.467 108,249.5C 108.403,237.488 108.07,225.488 107,213.5C 105.301,212.594 103.467,212.261 101.5,212.5C 101.5,211.5 101.5,210.5 101.5,209.5C 106.933,210.364 112.266,210.364 117.5,209.5C 117.5,210.5 117.5,211.5 117.5,212.5C 116.167,212.5 114.833,212.5 113.5,212.5C 112.876,229.146 112.209,245.813 111.5,262.5C 97.7841,249.952 84.9508,236.619 73,222.5C 72.3948,234.188 72.7282,245.855 74,257.5C 75.5998,258.866 77.4332,259.866 79.5,260.5C 73.8333,261.833 68.1667,261.833 62.5,260.5C 63.9905,259.756 65.4905,259.09 67,258.5C 67.2097,241.802 67.7097,225.135 68.5,208.5 Z"/></g>
<g><path style="opacity:0.814" fill="#000000" d="M 339.5,208.5 C 343.824,208.927 348.158,209.261 352.5,209.5C 352.823,213.226 352.489,216.893 351.5,220.5C 349.931,219.286 349.098,217.619 349,215.5C 343.204,210.968 338.204,211.635 334,217.5C 333.365,219.635 333.699,221.635 335,223.5C 341.14,228.728 346.806,234.395 352,240.5C 356.082,254.078 351.082,261.411 337,262.5C 333.742,262.507 330.575,262.007 327.5,261C 326.041,256.731 326.208,252.565 328,248.5C 329.368,256.776 334.201,259.942 342.5,258C 346.861,255.774 348.361,252.274 347,247.5C 343.876,242.342 339.71,238.176 334.5,235C 328.424,229.227 326.924,222.394 330,214.5C 332.551,211.319 335.718,209.319 339.5,208.5 Z"/></g>
<g><path style="opacity:0.845" fill="#000000" d="M 402.5,208.5 C 416.426,210.779 430.426,211.112 444.5,209.5C 444.5,212.833 444.5,216.167 444.5,219.5C 443.5,219.5 442.5,219.5 441.5,219.5C 441.773,217.549 441.107,216.049 439.5,215C 435.247,214.8 431.08,214.3 427,213.5C 426.333,228.167 426.333,242.833 427,257.5C 428.6,258.866 430.433,259.866 432.5,260.5C 426.5,261.833 420.5,261.833 414.5,260.5C 416.709,259.937 418.209,258.604 419,256.5C 419.833,242.155 419.666,227.822 418.5,213.5C 414.221,214.274 409.887,214.774 405.5,215C 404.315,216.353 402.981,217.52 401.5,218.5C 401.167,217.833 400.833,217.167 400.5,216.5C 401.171,213.815 401.838,211.148 402.5,208.5 Z"/></g>
<g><path style="opacity:0.817" fill="#000000" d="M -0.5,209.5 C 5.30896,210.124 10.9756,210.124 16.5,209.5C 16.5,210.5 16.5,211.5 16.5,212.5C 15.1667,212.5 13.8333,212.5 12.5,212.5C 12.3335,224.171 12.5001,235.838 13,247.5C 16.3842,257.773 23.2175,260.939 33.5,257C 37.382,253.736 39.5487,249.57 40,244.5C 40.6667,234.5 40.6667,224.5 40,214.5C 38.1797,213.098 36.3463,211.765 34.5,210.5C 39.7921,209.505 45.1254,209.172 50.5,209.5C 50.5,210.5 50.5,211.5 50.5,212.5C 49.1667,212.5 47.8333,212.5 46.5,212.5C 45.9785,225.524 45.1452,238.524 44,251.5C 40.1274,259.274 33.7941,262.94 25,262.5C 11.3679,262.283 4.70118,255.283 5,241.5C 4.66667,232.167 4.33333,222.833 4,213.5C 2.64387,212.62 1.14387,212.286 -0.5,212.5C -0.5,211.5 -0.5,210.5 -0.5,209.5 Z"/></g>
<g><path style="opacity:0.836" fill="#000000" d="M 134.5,209.5 C 139.933,210.364 145.266,210.364 150.5,209.5C 150.5,210.5 150.5,211.5 150.5,212.5C 149.178,212.33 148.011,212.663 147,213.5C 146.333,228.167 146.333,242.833 147,257.5C 148.53,258.92 150.363,259.92 152.5,260.5C 146.5,261.833 140.5,261.833 134.5,260.5C 137.684,259.797 139.184,257.797 139,254.5C 139.667,241.167 139.667,227.833 139,214.5C 137.951,212.893 136.451,212.227 134.5,212.5C 134.5,211.5 134.5,210.5 134.5,209.5 Z"/></g>
<g><path style="opacity:0.814" fill="#000000" d="M 161.5,209.5 C 167.621,210.081 173.621,210.414 179.5,210.5C 178.482,211.852 177.149,212.852 175.5,213.5C 179.973,225.588 184.64,237.588 189.5,249.5C 195.351,237.614 200.017,225.281 203.5,212.5C 202.448,212.649 201.448,212.483 200.5,212C 199.167,211.333 199.167,210.667 200.5,210C 205.52,210.45 210.52,210.616 215.5,210.5C 213.203,211.898 211.037,213.564 209,215.5C 203.862,228.581 198.529,241.581 193,254.5C 191.822,257.533 190.156,260.199 188,262.5C 180.557,247.268 173.89,231.601 168,215.5C 166.442,213.232 164.276,212.066 161.5,212C 160.402,211.23 160.402,210.397 161.5,209.5 Z"/></g>
<g><path style="opacity:0.833" fill="#000000" d="M 224.5,209.5 C 234.164,210.778 243.831,210.778 253.5,209.5C 253.112,212.879 252.445,216.212 251.5,219.5C 250.772,217.807 249.772,216.307 248.5,215C 244.605,213.734 240.605,213.234 236.5,213.5C 236.5,219.833 236.5,226.167 236.5,232.5C 242.004,232.85 247.337,232.183 252.5,230.5C 252.079,234.2 251.412,237.867 250.5,241.5C 249.772,239.807 248.772,238.307 247.5,237C 243.809,236.58 240.142,236.08 236.5,235.5C 236.334,242.175 236.5,248.842 237,255.5C 241.265,258.46 245.765,258.96 250.5,257C 251.594,255.22 252.594,253.386 253.5,251.5C 254.655,254.446 254.821,257.446 254,260.5C 244.227,261.818 234.394,261.818 224.5,260.5C 226.296,259.859 227.796,258.859 229,257.5C 229.667,242.833 229.667,228.167 229,213.5C 227.601,212.773 226.101,212.273 224.5,212C 223.402,211.23 223.402,210.397 224.5,209.5 Z"/></g>
<g><path style="opacity:0.85" fill="#000000" d="M 270.5,209.5 C 277.695,209.914 285.028,210.081 292.5,210C 304.387,212.974 307.887,220.141 303,231.5C 301.542,233.96 299.709,236.127 297.5,238C 302.457,244.626 307.791,250.96 313.5,257C 316.334,258.6 319.334,259.766 322.5,260.5C 317.869,261.662 313.202,261.828 308.5,261C 306.04,259.542 303.873,257.709 302,255.5C 298.5,250.667 295,245.833 291.5,241C 288.518,240.502 285.518,240.335 282.5,240.5C 282.338,246.555 282.838,252.555 284,258.5C 285.825,259.103 287.659,259.77 289.5,260.5C 283.5,261.833 277.5,261.833 271.5,260.5C 274.229,259.938 275.729,258.272 276,255.5C 276.667,241.833 276.667,228.167 276,214.5C 274.902,213.033 273.402,212.199 271.5,212C 270.748,211.329 270.414,210.496 270.5,209.5 Z M 282.5,213.5 C 295.954,213.037 300.787,219.37 297,232.5C 296.167,233.5 295.333,234.5 294.5,235.5C 290.635,236.806 286.802,236.806 283,235.5C 282.5,228.174 282.334,220.841 282.5,213.5 Z"/></g>
<g><path style="opacity:0.852" fill="#000000" d="M 370.5,209.5 C 376.178,210.439 381.845,210.773 387.5,210.5C 386.345,211.95 384.845,212.95 383,213.5C 382.333,227.833 382.333,242.167 383,256.5C 383.374,257.416 383.874,258.25 384.5,259C 386.256,259.202 387.922,259.702 389.5,260.5C 383.167,261.833 376.833,261.833 370.5,260.5C 372.296,259.859 373.796,258.859 375,257.5C 375.667,242.833 375.667,228.167 375,213.5C 373.933,212.809 372.766,212.309 371.5,212C 370.748,211.329 370.414,210.496 370.5,209.5 Z"/></g>
<g><path style="opacity:0.809" fill="#000000" d="M 499.5,209.5 C 499.5,210.5 499.5,211.5 499.5,212.5C 496.215,212.269 493.715,213.603 492,216.5C 486.893,223.712 482.56,231.379 479,239.5C 478.333,245.5 478.333,251.5 479,257.5C 480.916,258.928 483.083,259.928 485.5,260.5C 479.167,261.833 472.833,261.833 466.5,260.5C 468.296,259.859 469.796,258.859 471,257.5C 471.667,251.5 471.667,245.5 471,239.5C 466.285,229.895 460.451,221.062 453.5,213C 452.552,212.517 451.552,212.351 450.5,212.5C 450.5,211.5 450.5,210.5 450.5,209.5C 455.513,210.43 460.513,210.764 465.5,210.5C 465.023,211.478 464.357,212.311 463.5,213C 467.54,220.249 471.707,227.415 476,234.5C 479.919,228.33 483.586,221.997 487,215.5C 487.624,213.536 487.124,211.869 485.5,210.5C 490.038,210.431 494.705,210.097 499.5,209.5 Z"/></g>
<g><path style="opacity:0.784" fill="#000000" d="M 109.5,290.5 C 128.074,290.978 134.241,299.978 128,317.5C 121.041,325.825 112.541,327.658 102.5,323C 92.9613,312.652 93.2947,302.652 103.5,293C 105.611,292.155 107.611,291.322 109.5,290.5 Z M 110.5,293.5 C 117.092,293.378 121.592,296.378 124,302.5C 124.667,306.5 124.667,310.5 124,314.5C 119.596,323.115 113.429,324.615 105.5,319C 100.223,311.305 100.223,303.638 105.5,296C 107.315,295.243 108.981,294.41 110.5,293.5 Z"/></g>
<g><path style="opacity:0.816" fill="#000000" d="M 156.5,290.5 C 157.478,290.811 158.145,291.478 158.5,292.5C 157.959,294.535 157.292,296.535 156.5,298.5C 155.738,297.372 155.071,296.205 154.5,295C 151.854,294.503 149.187,294.336 146.5,294.5C 146.5,298.167 146.5,301.833 146.5,305.5C 149.579,305.74 152.579,305.407 155.5,304.5C 156.833,307.167 156.833,309.833 155.5,312.5C 154.738,311.372 154.071,310.205 153.5,309C 151.19,308.503 148.857,308.337 146.5,308.5C 146.334,312.846 146.501,317.179 147,321.5C 148.205,322.071 149.372,322.738 150.5,323.5C 146.5,324.833 142.5,324.833 138.5,323.5C 139.325,322.614 140.325,322.281 141.5,322.5C 141.666,313.161 141.5,303.827 141,294.5C 139.795,293.929 138.628,293.262 137.5,292.5C 143.988,291.833 150.321,291.167 156.5,290.5 Z"/></g>
<g><path style="opacity:0.863" fill="#000000" d="M 244.5,290.5 C 257.841,291.75 271.174,291.75 284.5,290.5C 286.266,290.434 287.266,291.268 287.5,293C 286.993,295.541 286.326,298.041 285.5,300.5C 284.937,298.291 283.604,296.791 281.5,296C 277.514,295.501 273.514,295.334 269.5,295.5C 269.333,310.17 269.5,324.837 270,339.5C 271.825,340.103 273.659,340.77 275.5,341.5C 269.5,342.833 263.5,342.833 257.5,341.5C 260.835,340.452 262.335,338.118 262,334.5C 262.5,321.504 262.667,308.504 262.5,295.5C 257.821,295.334 253.155,295.501 248.5,296C 246.824,297.177 245.491,298.677 244.5,300.5C 243.599,297.205 243.599,293.872 244.5,290.5 Z"/></g>
<g><path style="opacity:0.838" fill="#000000" d="M 312.5,290.5 C 313.822,290.33 314.989,290.663 316,291.5C 321.608,306.991 327.608,322.325 334,337.5C 336.12,339.652 338.62,341.152 341.5,342C 336.136,342.829 330.802,342.663 325.5,341.5C 325.931,340.707 326.265,339.873 326.5,339C 324.691,333.903 322.691,328.903 320.5,324C 315.511,323.501 310.511,323.334 305.5,323.5C 303.753,329.074 302.419,334.741 301.5,340.5C 303.103,340.312 304.437,340.812 305.5,342C 299.804,342.83 294.137,342.663 288.5,341.5C 292.979,341.189 295.813,338.855 297,334.5C 302.466,319.909 307.633,305.242 312.5,290.5 Z M 312.5,302.5 C 315.269,307.801 317.269,313.468 318.5,319.5C 314.818,319.665 311.152,319.499 307.5,319C 309.708,313.671 311.374,308.171 312.5,302.5 Z"/></g>
<g><path style="opacity:0.84" fill="#000000" d="M 215.5,343.5 C 210.833,343.5 206.167,343.5 201.5,343.5C 194.677,340.834 190.51,335.834 189,328.5C 188.667,317.5 188.333,306.5 188,295.5C 186.47,294.08 184.637,293.08 182.5,292.5C 188.5,291.167 194.5,291.167 200.5,292.5C 199.009,293.244 197.509,293.91 196,294.5C 195.083,306.891 195.416,319.224 197,331.5C 202.451,340.321 209.618,342.154 218.5,337C 220.652,334.531 222.152,331.698 223,328.5C 223.667,317.167 223.667,305.833 223,294.5C 221.053,293.89 219.219,293.057 217.5,292C 223.167,291.333 228.833,291.333 234.5,292C 233.109,293.02 231.609,293.853 230,294.5C 229.667,304.5 229.333,314.5 229,324.5C 228.512,333.803 224.012,340.136 215.5,343.5 Z"/></g>
<g><path style="opacity:0.885" fill="#000000" d="M 349.5,291.5 C 355.206,291.171 360.872,291.505 366.5,292.5C 363.771,293.062 362.271,294.728 362,297.5C 361.501,302.489 361.334,307.489 361.5,312.5C 370.833,312.5 380.167,312.5 389.5,312.5C 389.666,306.491 389.499,300.491 389,294.5C 387.491,293.91 385.991,293.244 384.5,292.5C 390.167,291.167 395.833,291.167 401.5,292.5C 400.311,293.429 398.978,293.762 397.5,293.5C 396.386,307.468 396.219,321.468 397,335.5C 397.273,337.101 397.773,338.601 398.5,340C 400.256,340.202 401.922,340.702 403.5,341.5C 397.5,342.833 391.5,342.833 385.5,341.5C 386.628,340.738 387.795,340.071 389,339.5C 389.5,331.841 389.666,324.174 389.5,316.5C 380.167,316.5 370.833,316.5 361.5,316.5C 361.238,324.22 361.738,331.887 363,339.5C 364.825,340.103 366.659,340.77 368.5,341.5C 362.5,342.833 356.5,342.833 350.5,341.5C 351.628,340.738 352.795,340.071 354,339.5C 355.934,324.49 355.934,309.49 354,294.5C 351.974,294.085 350.474,293.085 349.5,291.5 Z"/></g>
</svg>
